<svg width="100" height="100" viewBox="0 0 100 100" fill="none" xmlns="http://www.w3.org/2000/svg">
<rect width="100" height="100" rx="8" fill="url(#paint0_linear_14_29)"/>
<path d="M19.5688 60.98C19.8088 60.9 19.9488 60.84 19.9888 60.8C20.0288 60.72 20.0488 60.6 20.0488 60.44C19.8488 60.32 19.8488 60.22 20.0488 60.14C20.1288 59.9 20.1888 59.66 20.2288 59.42C20.2688 59.18 20.3088 58.92 20.3488 58.64C20.3888 58.48 20.3888 58.32 20.3488 58.16C20.3488 57.96 20.3688 57.78 20.4088 57.62C20.4088 57.34 20.4288 57.06 20.4688 56.78C20.5488 56.5 20.5888 56.26 20.5888 56.06C20.6288 55.86 20.6688 55.7 20.7088 55.58C20.7888 55.46 20.8288 55.32 20.8288 55.16C20.8688 54.8 20.8688 54.42 20.8288 54.02C20.8288 53.62 20.8288 53.24 20.8288 52.88C20.8288 52.64 20.8288 52.42 20.8288 52.22C20.8288 52.02 20.8488 51.84 20.8888 51.68C20.8888 51.52 20.8888 51.4 20.8888 51.32C20.9288 51.24 20.9488 51.18 20.9488 51.14C21.1088 50.86 21.2088 50.54 21.2488 50.18V49.94C21.2088 49.74 21.1888 49.56 21.1888 49.4C21.1888 49.2 21.2088 49.02 21.2488 48.86C21.2488 48.82 21.2288 48.8 21.1888 48.8C21.0288 48.68 20.9288 48.52 20.8888 48.32C20.8888 48.12 20.8888 47.94 20.8888 47.78V46.64C20.8888 46.52 20.9088 46.44 20.9488 46.4C20.9888 46.32 21.0288 46.22 21.0688 46.1C21.1088 45.98 21.0488 45.86 20.8888 45.74V45.68C20.9688 45.48 20.9688 45.3 20.8888 45.14C20.8488 44.98 20.8088 44.84 20.7688 44.72C20.7288 44.56 20.7088 44.4 20.7088 44.24C20.7088 44.04 20.6688 43.86 20.5888 43.7C20.5088 43.54 20.4688 43.42 20.4688 43.34C20.5088 43.22 20.4888 43.1 20.4088 42.98C20.4088 42.82 20.3888 42.72 20.3488 42.68C20.3488 42.32 20.2688 42.3 20.1088 42.62V41.72C20.1088 41.4 19.9888 41.12 19.7488 40.88C19.7088 40.84 19.6888 40.78 19.6888 40.7C19.6488 40.34 19.6288 40 19.6288 39.68C19.6288 39.36 19.6288 39.02 19.6288 38.66V38.6C19.6688 38.32 19.6088 38.18 19.4488 38.18C19.4088 37.94 19.3888 37.7 19.3888 37.46C19.3888 37.22 19.3688 36.98 19.3288 36.74C19.2888 36.5 19.2488 36.26 19.2088 36.02C19.2088 35.78 19.1888 35.58 19.1488 35.42C19.1488 35.34 19.1488 35.26 19.1488 35.18C19.1888 35.06 19.2088 34.98 19.2088 34.94C19.2088 34.86 19.1888 34.78 19.1488 34.7C19.1488 34.62 19.1488 34.56 19.1488 34.52L19.0888 34.22C19.0488 34.02 19.0088 33.82 18.9688 33.62C18.9688 33.38 18.9288 33.18 18.8488 33.02C18.8488 32.78 18.7888 32.66 18.6688 32.66C18.4288 32.54 18.1888 32.42 17.9488 32.3C17.7488 32.14 17.5088 31.98 17.2288 31.82L16.8688 31.58C16.7888 31.42 16.6888 31.26 16.5688 31.1C16.4488 30.9 16.2888 30.74 16.0888 30.62C16.0488 30.62 15.9888 30.58 15.9088 30.5C15.8688 30.46 15.8488 30.36 15.8488 30.2C15.8488 30.08 15.7488 29.92 15.5488 29.72C15.5088 29.72 15.4888 29.68 15.4888 29.6C15.4888 29.6 15.5088 29.6 15.5488 29.6C15.5888 29.56 15.6288 29.54 15.6688 29.54C15.7488 29.54 15.8088 29.56 15.8488 29.6C15.9288 29.6 15.9888 29.6 16.0288 29.6C16.1888 29.6 16.3088 29.6 16.3888 29.6C16.4688 29.6 16.5488 29.6 16.6288 29.6H16.9888C17.0688 29.6 17.1088 29.6 17.1088 29.6C17.2288 29.52 17.3288 29.46 17.4088 29.42C17.5288 29.34 17.6288 29.28 17.7088 29.24C17.8288 29.16 17.8688 29.08 17.8288 29C17.8288 28.92 17.8288 28.86 17.8288 28.82C17.7888 28.62 17.7488 28.46 17.7088 28.34C17.6688 28.22 17.6688 28.12 17.7088 28.04C17.7488 27.72 17.7288 27.5 17.6488 27.38C17.5688 27.22 17.4688 27.1 17.3488 27.02C17.3488 27.02 17.3288 27.02 17.2888 27.02C17.2488 26.98 17.2288 26.94 17.2288 26.9H17.1688C17.3688 26.82 17.4288 26.68 17.3488 26.48H17.4088C17.4888 26.52 17.5488 26.54 17.5888 26.54C17.6288 26.54 17.6688 26.58 17.7088 26.66C17.9088 26.74 18.0288 26.7 18.0688 26.54C18.3088 26.38 18.5288 26.24 18.7288 26.12C18.9688 25.96 19.2288 25.86 19.5088 25.82L19.6288 25.7C19.7088 25.82 19.8888 25.86 20.1688 25.82C20.2488 25.82 20.3088 25.88 20.3488 26C20.3888 26.08 20.4688 26.16 20.5888 26.24C20.6288 26.24 20.6488 26.26 20.6488 26.3C20.6488 26.34 20.6688 26.36 20.7088 26.36C20.8688 26.48 20.9688 26.52 21.0088 26.48C21.0888 26.48 21.1488 26.44 21.1888 26.36C21.2288 26.28 21.2688 26.22 21.3088 26.18C21.3488 26.22 21.3688 26.32 21.3688 26.48C21.4088 26.64 21.4888 26.74 21.6088 26.78C21.6888 26.7 21.7488 26.62 21.7888 26.54C21.8688 26.46 21.9488 26.42 22.0288 26.42C22.1888 26.38 22.3288 26.38 22.4488 26.42C22.6088 26.42 22.7688 26.36 22.9288 26.24C22.9288 26.24 22.9488 26.24 22.9888 26.24C23.0288 26.24 23.0488 26.26 23.0488 26.3C23.2488 26.34 23.4288 26.42 23.5888 26.54C23.7888 26.66 23.9688 26.78 24.1288 26.9C24.3688 27.02 24.5888 27.14 24.7888 27.26C25.0288 27.38 25.2888 27.48 25.5688 27.56H25.6288C25.7088 27.8 25.8088 27.9 25.9288 27.86C26.0488 27.82 26.1888 27.8 26.3488 27.8H26.7688C26.8088 27.88 26.8488 27.9 26.8888 27.86C26.9688 27.78 27.0288 27.72 27.0688 27.68C27.1488 27.56 27.2288 27.5 27.3088 27.5C27.3888 27.5 27.4888 27.5 27.6088 27.5C27.7288 27.54 27.7488 27.64 27.6688 27.8C27.5488 27.96 27.5088 28.06 27.5488 28.1C27.5888 28.14 27.6288 28.2 27.6688 28.28C27.7088 28.28 27.7288 28.3 27.7288 28.34C27.5688 28.38 27.4088 28.44 27.2488 28.52C27.1288 28.6 26.9888 28.68 26.8288 28.76V28.82C27.0288 28.86 27.2288 28.96 27.4288 29.12C27.6288 29.24 27.8088 29.3 27.9688 29.3C28.1688 29.26 28.3488 29.28 28.5088 29.36C28.7088 29.44 28.9288 29.48 29.1688 29.48C29.2888 29.56 29.4488 29.52 29.6488 29.36C29.8488 29.32 30.0088 29.34 30.1288 29.42C30.2488 29.46 30.3688 29.5 30.4888 29.54C30.6088 29.58 30.7088 29.6 30.7888 29.6C30.9088 29.6 31.0088 29.62 31.0888 29.66C31.1688 29.7 31.2488 29.72 31.3288 29.72C31.4488 29.72 31.5288 29.76 31.5688 29.84C31.6088 29.84 31.6688 29.86 31.7488 29.9C31.8288 29.9 31.8888 29.88 31.9288 29.84C32.3288 29.84 32.7088 29.9 33.0688 30.02C33.4288 30.06 33.7288 30.2 33.9688 30.44C34.0488 30.48 34.1888 30.5 34.3888 30.5C34.5888 30.54 34.7288 30.56 34.8088 30.56C34.8888 30.52 34.9888 30.52 35.1088 30.56C35.1888 30.56 35.2688 30.58 35.3488 30.62C35.4288 30.66 35.5088 30.7 35.5888 30.74C35.6288 30.74 35.6488 30.76 35.6488 30.8C35.6888 30.84 35.7288 30.84 35.7688 30.8C35.9688 30.72 36.1088 30.74 36.1888 30.86C36.3088 30.94 36.4088 31.02 36.4888 31.1C36.5688 31.14 36.6288 31.16 36.6688 31.16C36.7488 31.16 36.8088 31.18 36.8488 31.22C37.0088 31.22 37.1688 31.24 37.3288 31.28C37.5288 31.28 37.7088 31.28 37.8688 31.28C37.9488 31.32 38.0288 31.34 38.1088 31.34C38.2288 31.34 38.3088 31.38 38.3488 31.46L39.4288 32.12C39.5488 32.12 39.6888 32.2 39.8488 32.36C40.1688 32.48 40.4688 32.6 40.7488 32.72C41.0688 32.84 41.3688 33 41.6488 33.2C41.9688 33.36 42.2488 33.56 42.4888 33.8C42.7288 34.04 42.9888 34.28 43.2688 34.52C43.4688 34.68 43.6688 34.86 43.8688 35.06C44.1088 35.26 44.3088 35.46 44.4688 35.66C44.6688 35.94 44.8488 36.22 45.0088 36.5C45.1688 36.74 45.3288 36.98 45.4888 37.22C45.6488 37.38 45.7888 37.58 45.9088 37.82C46.0288 38.06 46.1488 38.32 46.2688 38.6C46.3488 38.72 46.4088 38.88 46.4488 39.08C46.5288 39.24 46.6088 39.42 46.6888 39.62C46.7688 39.78 46.8288 39.94 46.8688 40.1C46.9488 40.26 47.0088 40.44 47.0488 40.64C47.1288 40.96 47.1688 41.32 47.1688 41.72C47.3288 42.24 47.4688 42.74 47.5888 43.22C47.6288 43.3 47.6288 43.42 47.5888 43.58C47.5888 43.7 47.5888 43.8 47.5888 43.88C47.5888 44.12 47.5888 44.36 47.5888 44.6C47.5888 44.84 47.5888 45.08 47.5888 45.32V45.62C47.6688 45.74 47.6688 45.9 47.5888 46.1C47.5488 46.26 47.5288 46.4 47.5288 46.52C47.2888 46.52 47.1288 46.62 47.0488 46.82C46.9688 47.02 46.8888 47.24 46.8088 47.48C46.6088 47.88 46.4688 48.34 46.3888 48.86L46.0888 49.34C45.9688 49.66 45.8288 49.98 45.6688 50.3C45.5488 50.58 45.4488 50.88 45.3688 51.2C45.2488 51.36 45.1488 51.56 45.0688 51.8C45.0288 52 44.9688 52.2 44.8888 52.4C44.8888 52.52 44.8688 52.62 44.8288 52.7C44.8288 52.78 44.8088 52.88 44.7688 53C44.7688 53.04 44.7488 53.08 44.7088 53.12C44.7888 53.32 44.7888 53.48 44.7088 53.6C44.6688 53.68 44.6088 53.76 44.5288 53.84C44.4888 54 44.4288 54.14 44.3488 54.26C44.3088 54.38 44.3088 54.5 44.3488 54.62C44.3888 54.7 44.3888 54.8 44.3488 54.92C44.3088 55 44.2688 55.08 44.2288 55.16C44.1888 55.28 44.1288 55.4 44.0488 55.52C43.9688 55.6 43.8888 55.7 43.8088 55.82C43.7688 55.94 43.7088 56.06 43.6288 56.18C43.5888 56.26 43.5288 56.34 43.4488 56.42C43.3688 56.66 43.2488 56.88 43.0888 57.08C42.9688 57.24 42.8488 57.4 42.7288 57.56C42.6488 57.72 42.5488 57.88 42.4288 58.04C42.3088 58.2 42.2088 58.38 42.1288 58.58C41.9688 58.74 41.8088 58.94 41.6488 59.18C41.5288 59.38 41.3688 59.52 41.1688 59.6C41.1288 59.64 41.0888 59.7 41.0488 59.78C41.0088 59.82 40.9688 59.88 40.9288 59.96C40.9288 59.96 40.9088 59.96 40.8688 59.96C40.8688 59.92 40.8688 59.88 40.8688 59.84L40.9288 59.6C40.9288 59.6 40.9088 59.6 40.8688 59.6C40.8688 59.6 40.8688 59.58 40.8688 59.54C40.7088 59.66 40.5688 59.78 40.4488 59.9C40.3688 59.98 40.2488 60.06 40.0888 60.14V60.08C40.1288 60.04 40.1688 60 40.2088 59.96C40.2488 59.88 40.3088 59.82 40.3888 59.78C40.5088 59.66 40.6488 59.54 40.8088 59.42C40.9688 59.3 41.0888 59.16 41.1688 59C41.2888 58.88 41.3888 58.78 41.4688 58.7C41.5488 58.58 41.6088 58.4 41.6488 58.16C41.6488 58.08 41.6888 58.02 41.7688 57.98C41.8488 57.9 41.9088 57.82 41.9488 57.74C42.0688 57.62 42.0688 57.5 41.9488 57.38C41.9488 57.26 41.9888 57.18 42.0688 57.14C42.1888 57.1 42.2088 57.02 42.1288 56.9C42.0888 56.94 42.0288 56.98 41.9488 57.02C41.9088 57.06 41.8688 57.16 41.8288 57.32C41.8288 57.4 41.7688 57.48 41.6488 57.56C41.6088 57.6 41.5288 57.66 41.4088 57.74C41.3288 57.78 41.2488 57.86 41.1688 57.98C41.1688 57.98 41.1288 58.02 41.0488 58.1C40.7288 58.34 40.5288 58.74 40.4488 59.3C40.4488 59.42 40.4288 59.52 40.3888 59.6C40.2688 59.64 40.1488 59.66 40.0288 59.66C39.8288 59.86 39.6288 59.98 39.4288 60.02C39.3088 60.14 39.3088 60.3 39.4288 60.5C39.2688 60.42 39.1488 60.46 39.0688 60.62C38.9888 60.78 38.8688 60.9 38.7088 60.98C38.6288 61.02 38.5888 61.06 38.5888 61.1C38.6688 61.26 38.6488 61.38 38.5288 61.46C38.4488 61.54 38.3888 61.64 38.3488 61.76C38.2688 61.92 38.1888 62.04 38.1088 62.12C38.0688 62.12 38.0488 62.14 38.0488 62.18C38.0488 62.22 38.0488 62.24 38.0488 62.24C37.8888 62.4 37.7088 62.6 37.5088 62.84C37.3088 63.04 37.1088 63.2 36.9088 63.32L36.8488 63.38C36.7688 63.54 36.6888 63.64 36.6088 63.68C36.5688 63.72 36.5088 63.76 36.4288 63.8C36.3488 63.84 36.2688 63.96 36.1888 64.16C36.1888 64.16 36.1888 64.18 36.1888 64.22C36.1888 64.22 36.1688 64.22 36.1288 64.22C35.9688 64.3 35.7888 64.4 35.5888 64.52C35.3888 64.6 35.1888 64.72 34.9888 64.88C34.9088 64.92 34.8288 64.98 34.7488 65.06C34.7488 64.94 34.7688 64.84 34.8088 64.76C34.6488 64.68 34.4888 64.8 34.3288 65.12C34.4488 65.12 34.5288 65.14 34.5688 65.18C34.4888 65.26 34.4088 65.34 34.3288 65.42C34.2888 65.5 34.2888 65.64 34.3288 65.84H34.6288C34.5888 65.92 34.5288 65.98 34.4488 66.02C34.3688 66.06 34.3088 66.1 34.2688 66.14C34.2288 66.06 34.1888 66 34.1488 65.96C34.1088 65.92 34.0688 65.88 34.0288 65.84C34.0288 65.92 34.0088 65.98 33.9688 66.02C33.9688 66.06 33.9688 66.12 33.9688 66.2C33.9688 66.64 33.8088 66.86 33.4888 66.86C33.3288 66.86 33.1688 66.9 33.0088 66.98C32.8888 67.02 32.7688 67.08 32.6488 67.16C32.5688 67.2 32.4888 67.32 32.4088 67.52C32.1688 67.56 31.9488 67.66 31.7488 67.82C31.5488 67.94 31.3488 68.08 31.1488 68.24C30.9088 68.4 30.7288 68.6 30.6088 68.84C30.5288 69.04 30.4088 69.14 30.2488 69.14C30.0488 68.98 29.9088 69.02 29.8288 69.26C29.7488 69.46 29.5888 69.52 29.3488 69.44C29.3088 69.4 29.2088 69.42 29.0488 69.5C28.9288 69.58 28.8288 69.7 28.7488 69.86L28.3888 70.1C28.2288 70.26 28.0688 70.4 27.9088 70.52C27.7488 70.6 27.5688 70.7 27.3688 70.82C27.2488 70.94 27.1088 71 26.9488 71C26.8288 71 26.7288 71 26.6488 71C26.2888 71 26.1088 71.12 26.1088 71.36C26.1088 71.52 26.1488 71.64 26.2288 71.72C26.4688 71.84 26.4688 72.04 26.2288 72.32C26.1888 72.32 26.1288 72.32 26.0488 72.32C26.0088 72.36 25.9888 72.38 25.9888 72.38C26.0288 72.58 26.0088 72.74 25.9288 72.86C25.8488 72.98 25.7688 73.12 25.6888 73.28L25.2688 73.16C25.2688 73.2 25.2488 73.24 25.2088 73.28C25.2088 73.36 25.2088 73.44 25.2088 73.52C25.1688 73.32 25.0688 73.22 24.9088 73.22C24.7488 73.22 24.6488 73.2 24.6088 73.16C24.5288 73.16 24.4488 73.08 24.3688 72.92C24.3288 72.8 24.2288 72.74 24.0688 72.74C23.9888 72.78 23.8888 72.8 23.7688 72.8C23.6888 72.8 23.6088 72.84 23.5288 72.92C23.2088 72.92 23.0288 72.78 22.9888 72.5C22.9488 72.42 22.8288 72.38 22.6288 72.38C22.4288 72.42 22.2888 72.48 22.2088 72.56C22.1688 72.6 22.1288 72.64 22.0888 72.68C22.0888 72.72 22.0888 72.74 22.0888 72.74L21.8488 72.5C21.7688 72.42 21.7288 72.36 21.7288 72.32C21.7288 72.36 21.7088 72.38 21.6688 72.38C21.6688 72.42 21.6688 72.46 21.6688 72.5C21.6688 72.58 21.6688 72.66 21.6688 72.74C21.6688 72.82 21.6688 72.9 21.6688 72.98V73.4C21.6688 73.44 21.6688 73.48 21.6688 73.52C21.7088 73.6 21.7288 73.68 21.7288 73.76H21.6688C21.5088 73.64 21.3688 73.5 21.2488 73.34C21.1688 73.22 21.0488 73.08 20.8888 72.92C20.8488 72.8 20.8088 72.74 20.7688 72.74C20.6088 72.7 20.5488 72.62 20.5888 72.5C20.6288 72.42 20.6488 72.36 20.6488 72.32C20.6488 72.24 20.6888 72.18 20.7688 72.14C20.8488 72.14 20.9088 72.12 20.9488 72.08C20.9488 72.04 20.9288 72 20.8888 71.96C20.8888 71.92 20.8888 71.88 20.8888 71.84C20.8088 71.92 20.7288 71.96 20.6488 71.96C20.6088 71.96 20.5488 71.96 20.4688 71.96C20.3888 71.96 20.3488 71.94 20.3488 71.9C20.3088 71.82 20.2288 71.72 20.1088 71.6C20.0288 71.48 19.9088 71.38 19.7488 71.3V71.24C19.7488 71 19.6288 70.88 19.3888 70.88C19.2688 70.92 19.1288 70.86 18.9688 70.7C18.8488 70.5 18.8088 70.32 18.8488 70.16V70.1C18.7288 69.98 18.6288 69.82 18.5488 69.62C18.5088 69.42 18.3888 69.3 18.1888 69.26C18.1088 69.22 18.0288 69.14 17.9488 69.02C17.8688 68.86 17.7888 68.76 17.7088 68.72C17.5888 68.56 17.4688 68.4 17.3488 68.24C17.2688 68.08 17.2088 67.88 17.1688 67.64C17.1288 67.44 17.0488 67.24 16.9288 67.04C16.8088 66.84 16.7088 66.64 16.6288 66.44L16.5688 66.2C16.6488 65.84 16.6488 65.6 16.5688 65.48C16.4888 65.36 16.2888 65.22 15.9688 65.06C15.8888 65.02 15.7288 64.88 15.4888 64.64C15.4888 64.64 15.4688 64.64 15.4288 64.64C15.4288 64.6 15.4288 64.56 15.4288 64.52C15.4288 64.48 15.4488 64.46 15.4888 64.46C15.5288 64.46 15.5488 64.46 15.5488 64.46C15.6288 64.42 15.6888 64.4 15.7288 64.4C15.8088 64.4 15.8488 64.4 15.8488 64.4C15.8888 64.36 15.9288 64.36 15.9688 64.4C16.0488 64.44 16.1488 64.48 16.2688 64.52C16.4288 64.56 16.5488 64.6 16.6288 64.64L16.6888 64.76C16.7688 64.68 16.8688 64.7 16.9888 64.82C17.1488 64.9 17.2888 64.96 17.4088 65C17.4488 65.04 17.5088 65.02 17.5888 64.94C17.5888 64.86 17.5688 64.78 17.5288 64.7C17.5288 64.62 17.5288 64.56 17.5288 64.52H17.4088C17.3288 64.36 17.2688 64.18 17.2288 63.98C17.2288 63.78 17.1088 63.66 16.8688 63.62C16.8688 63.5 16.8888 63.42 16.9288 63.38C16.9688 63.34 16.9888 63.32 16.9888 63.32C16.7888 63.16 16.5688 63.02 16.3288 62.9C16.0888 62.74 15.8888 62.6 15.7288 62.48V62.42C16.0488 62.5 16.3488 62.54 16.6288 62.54C16.7888 62.54 16.8688 62.52 16.8688 62.48C16.9488 62.44 17.0288 62.42 17.1088 62.42C17.1888 62.38 17.2888 62.4 17.4088 62.48C17.4888 62.52 17.6688 62.54 17.9488 62.54C17.9888 62.54 18.0288 62.54 18.0688 62.54C18.1488 62.5 18.2288 62.5 18.3088 62.54C18.6288 62.54 18.8888 62.4 19.0888 62.12C19.2888 61.8 19.4488 61.42 19.5688 60.98ZM30.8488 62.6C30.8888 62.6 30.9088 62.6 30.9088 62.6C30.9488 62.6 30.9888 62.6 31.0288 62.6H30.8488ZM30.8488 62.6C30.8088 62.64 30.7888 62.7 30.7888 62.78C30.7888 62.82 30.7688 62.88 30.7288 62.96H30.7888C30.8288 62.92 30.8688 62.88 30.9088 62.84C30.9888 62.8 31.0488 62.72 31.0888 62.6H31.0288C31.1888 62.56 31.3288 62.48 31.4488 62.36C31.5688 62.2 31.6688 62.04 31.7488 61.88C31.5888 61.84 31.4488 61.82 31.3288 61.82C31.2488 61.78 31.1288 61.76 30.9688 61.76C31.0488 61.56 31.1288 61.46 31.2088 61.46C31.3288 61.46 31.4088 61.52 31.4488 61.64C31.4488 61.64 31.4488 61.66 31.4488 61.7C31.4888 61.7 31.5288 61.7 31.5688 61.7C31.5288 61.7 31.5888 61.66 31.7488 61.58C31.7088 61.58 31.6688 61.56 31.6288 61.52C31.6288 61.44 31.6088 61.4 31.5688 61.4H31.3888C31.4688 61.32 31.5288 61.22 31.5688 61.1C31.6488 60.94 31.7688 60.94 31.9288 61.1C32.0088 60.86 32.0488 60.72 32.0488 60.68C32.0888 60.56 32.1688 60.48 32.2888 60.44C32.4088 60.36 32.4688 60.24 32.4688 60.08C32.4688 60.08 32.4888 60.08 32.5288 60.08C32.5688 60.08 32.6088 60.06 32.6488 60.02C32.7688 60.02 32.8688 59.98 32.9488 59.9C32.9888 59.74 33.0288 59.58 33.0688 59.42C33.1488 59.26 33.2888 59.16 33.4888 59.12C33.5288 59.12 33.5488 59.14 33.5488 59.18C33.5888 59.18 33.6288 59.18 33.6688 59.18L33.7288 58.82C33.6888 58.62 33.6888 58.5 33.7288 58.46C33.8088 58.42 33.9088 58.38 34.0288 58.34C34.1088 58.34 34.1688 58.3 34.2088 58.22C34.2888 57.9 34.3488 57.72 34.3888 57.68C34.5888 57.52 34.7288 57.36 34.8088 57.2C34.8888 57 34.9688 56.82 35.0488 56.66L35.2288 56.48C35.4288 56.16 35.5888 55.9 35.7088 55.7C35.8688 55.5 35.9888 55.26 36.0688 54.98C36.1488 54.7 36.2288 54.44 36.3088 54.2C36.3888 53.92 36.4688 53.52 36.5488 53C36.7088 51.96 37.0488 51.76 37.5688 52.4H37.7488C38.1488 52.72 38.3488 52.6 38.3488 52.04C38.5088 51.6 38.6488 51.14 38.7688 50.66C38.8888 50.14 38.9888 49.58 39.0688 48.98C39.1088 48.86 39.1488 48.7 39.1888 48.5C39.2688 48.26 39.4888 47.9 39.8488 47.42C39.8488 47.06 39.9288 46.88 40.0888 46.88C40.0888 46.52 40.1088 46.2 40.1488 45.92C40.1888 45.64 40.3088 45.32 40.5088 44.96C40.6288 44.6 40.7488 44.28 40.8688 44C40.9888 43.72 41.0888 43.46 41.1688 43.22C41.1688 43.14 41.1288 43.06 41.0488 42.98C41.0088 42.86 40.9888 42.76 40.9888 42.68C40.8688 42.76 40.6888 42.82 40.4488 42.86C40.2088 42.9 40.0888 42.96 40.0888 43.04C39.9688 43.32 39.7288 43.48 39.3688 43.52C39.0088 43.56 38.7088 43.58 38.4688 43.58C38.4688 43.22 38.5288 42.88 38.6488 42.56C38.8088 42.24 39.1488 42 39.6688 41.84C39.7088 41.84 39.7288 41.84 39.7288 41.84C39.7688 41.8 39.7888 41.78 39.7888 41.78H39.8488C39.8488 41.82 39.8288 41.88 39.7888 41.96C39.7488 42 39.7088 42.06 39.6688 42.14C39.5888 42.02 39.5888 41.92 39.6688 41.84C39.7088 41.8 39.7488 41.78 39.7888 41.78L40.5088 41.6C40.4688 41.44 40.4488 41.3 40.4488 41.18C40.4488 41.02 40.3088 40.86 40.0288 40.7C39.9888 40.7 39.9688 40.7 39.9688 40.7C39.9688 40.66 39.9688 40.64 39.9688 40.64C39.8088 40.56 39.6888 40.44 39.6088 40.28L38.9488 40.46C39.0288 40.18 39.0688 39.9 39.0688 39.62C39.1088 39.34 39.0288 39.06 38.8288 38.78C38.5888 38.86 38.4688 38.9 38.4688 38.9C38.4288 38.82 38.3888 38.76 38.3488 38.72C38.3088 38.68 38.2688 38.62 38.2288 38.54L38.1688 38.48C38.0888 38.32 38.0288 38.2 37.9888 38.12C37.9488 38 37.8888 37.9 37.8088 37.82C37.4488 37.34 37.0288 36.96 36.5488 36.68C36.3088 36.64 36.0888 36.58 35.8888 36.5C35.7288 36.38 35.5288 36.3 35.2888 36.26C34.7688 36.02 34.1288 35.8 33.3688 35.6C32.9288 35.52 32.4688 35.44 31.9888 35.36C31.5488 35.28 31.1088 35.2 30.6688 35.12H30.5488C30.0288 35.12 29.5888 35.04 29.2288 34.88L27.9088 34.7C27.8688 34.66 27.7488 34.66 27.5488 34.7C27.3888 34.7 27.2888 34.72 27.2488 34.76C27.0088 34.8 26.7488 34.78 26.4688 34.7C26.3088 34.7 26.1888 34.76 26.1088 34.88C26.0688 35.04 26.0288 35.2 25.9888 35.36C25.9888 35.48 25.9888 35.62 25.9888 35.78C25.9488 35.9 25.9288 36.04 25.9288 36.2C26.0488 36.2 26.1488 36.18 26.2288 36.14C26.1888 36.26 26.1488 36.38 26.1088 36.5C26.1088 36.62 26.1088 36.72 26.1088 36.8C26.0688 36.76 26.0488 36.74 26.0488 36.74C26.0488 36.7 26.0288 36.66 25.9888 36.62H25.9288C25.8488 36.78 25.8088 36.92 25.8088 37.04V37.4C25.7288 37.72 25.7488 37.9 25.8688 37.94C25.7888 38.26 25.7488 38.54 25.7488 38.78C25.7488 38.82 25.7288 38.86 25.6888 38.9C25.6888 38.94 25.7088 39 25.7488 39.08C25.7488 39.32 25.7288 39.48 25.6888 39.56V39.86C25.7288 40.02 25.7288 40.2 25.6888 40.4C25.6488 40.6 25.6488 40.8 25.6888 41C25.6888 41.12 25.6888 41.24 25.6888 41.36C25.7288 41.44 25.7688 41.54 25.8088 41.66H25.9288C25.9688 41.5 25.9888 41.28 25.9888 41C25.9888 41.04 25.9888 41.06 25.9888 41.06C26.0288 41.06 26.0488 41.06 26.0488 41.06V41.12C26.0488 41.12 26.0488 41.14 26.0488 41.18V41.06C26.0088 40.86 26.0088 40.7 26.0488 40.58C26.1288 40.46 26.2088 40.34 26.2888 40.22C26.3288 40.22 26.3488 40.24 26.3488 40.28C26.2688 40.52 26.1888 40.68 26.1088 40.76C26.1088 40.84 26.0888 40.96 26.0488 41.12C26.1288 41.2 26.2088 41.26 26.2888 41.3C26.3688 41.34 26.4288 41.4 26.4688 41.48C26.4688 41.56 26.4488 41.66 26.4088 41.78C26.3688 41.86 26.3488 41.96 26.3488 42.08C26.3088 42.36 26.2688 42.62 26.2288 42.86C26.2288 43.1 26.2288 43.32 26.2288 43.52C26.1888 43.64 26.1488 43.76 26.1088 43.88C26.1088 43.96 26.0688 44.04 25.9888 44.12C26.0288 44.04 26.0488 43.96 26.0488 43.88C26.0488 43.8 26.0688 43.74 26.1088 43.7C26.1088 43.34 26.0888 43.1 26.0488 42.98C26.0488 42.9 26.0288 42.84 25.9888 42.8C25.9888 42.76 25.9888 42.72 25.9888 42.68C25.9088 42.76 25.8688 42.86 25.8688 42.98C25.8688 43.14 25.8688 43.3 25.8688 43.46C25.8688 43.62 25.8288 43.78 25.7488 43.94C25.6688 44.06 25.6288 44.28 25.6288 44.6C25.7888 44.52 25.8688 44.48 25.8688 44.48C25.8688 44.44 25.8888 44.42 25.9288 44.42C25.9688 44.42 26.0088 44.44 26.0488 44.48L25.9288 45.8C25.9288 45.96 25.8888 46.16 25.8088 46.4C25.7688 46.56 25.7288 46.74 25.6888 46.94C25.6888 47.14 25.6888 47.34 25.6888 47.54C25.7288 47.66 25.7488 47.88 25.7488 48.2C25.8688 47.88 25.9488 47.7 25.9888 47.66C26.0288 47.62 26.1088 47.6 26.2288 47.6C26.2288 47.64 26.2088 47.72 26.1688 47.84C26.1288 47.96 26.1088 48.06 26.1088 48.14L25.9888 48.32C25.9088 48.4 25.8888 48.58 25.9288 48.86C25.9688 48.82 26.0688 48.8 26.2288 48.8C26.2288 48.92 26.2288 49.1 26.2288 49.34C26.2288 49.54 26.1888 49.76 26.1088 50L25.9288 51.14C25.8888 51.26 25.8688 51.4 25.8688 51.56C25.8288 51.6 25.8088 51.64 25.8088 51.68C25.8488 51.72 25.8688 51.78 25.8688 51.86C25.8688 52.02 25.8888 52.16 25.9288 52.28C25.9688 52.4 25.9688 52.52 25.9288 52.64C25.8488 52.84 25.8088 53.04 25.8088 53.24C25.8088 53.44 25.8288 53.68 25.8688 53.96C25.8288 54.04 25.8088 54.14 25.8088 54.26C25.7688 54.38 25.7488 54.54 25.7488 54.74C25.7888 54.9 25.7888 55.08 25.7488 55.28C25.7488 55.56 25.7688 55.74 25.8088 55.82C25.8088 55.94 25.7888 56.04 25.7488 56.12C25.7488 56.2 25.7688 56.32 25.8088 56.48C25.8088 56.52 25.8088 56.56 25.8088 56.6C25.8488 56.64 25.8688 56.7 25.8688 56.78V57.5C25.8688 57.66 25.8688 57.82 25.8688 57.98C25.8688 58.1 25.8888 58.26 25.9288 58.46C25.9688 58.62 25.9488 58.78 25.8688 58.94C25.8288 59.06 25.8288 59.18 25.8688 59.3C25.8688 59.3 25.8488 59.32 25.8088 59.36V59.78C25.8088 59.82 25.8088 59.86 25.8088 59.9C25.8488 59.94 25.8688 60 25.8688 60.08C25.9088 60.36 25.9088 60.64 25.8688 60.92C25.8688 61.2 25.8888 61.48 25.9288 61.76V61.94C25.8488 62.34 25.9688 62.54 26.2888 62.54C26.4888 62.46 26.6088 62.38 26.6488 62.3C26.7288 62.42 26.7488 62.48 26.7088 62.48C26.6688 62.6 26.5888 62.72 26.4688 62.84C26.3488 62.96 26.2288 63.08 26.1088 63.2C26.1888 63.24 26.2688 63.28 26.3488 63.32C26.4688 63.32 26.5488 63.36 26.5888 63.44C26.5888 63.48 26.5688 63.54 26.5288 63.62H26.1088C26.0288 63.62 25.9688 63.64 25.9288 63.68V64.16C25.9288 64.4 26.0488 64.46 26.2888 64.34C26.4888 64.22 26.6088 64.06 26.6488 63.86L26.8288 63.74C26.9488 63.78 27.0088 63.9 27.0088 64.1C26.8488 64.14 26.7088 64.22 26.5888 64.34C26.5088 64.42 26.4288 64.54 26.3488 64.7L26.2888 64.82C26.2488 64.9 26.2088 64.98 26.1688 65.06C26.1288 65.14 26.0888 65.24 26.0488 65.36V65.84C26.0888 65.84 26.1488 65.84 26.2288 65.84C26.3088 65.84 26.3888 65.88 26.4688 65.96C26.3888 66.12 26.3888 66.22 26.4688 66.26C26.5888 66.26 26.6688 66.26 26.7088 66.26C26.6688 66.3 26.6488 66.38 26.6488 66.5C26.6488 66.58 26.6288 66.66 26.5888 66.74C26.6288 66.74 26.6688 66.74 26.7088 66.74C26.7888 66.7 26.8888 66.68 27.0088 66.68C27.2088 66.68 27.3088 66.56 27.3088 66.32C27.2688 66.2 27.1688 66.14 27.0088 66.14C26.8888 66.02 26.7888 65.88 26.7088 65.72H27.1288C27.2488 65.72 27.3088 65.72 27.3088 65.72C27.5088 65.56 27.6888 65.48 27.8488 65.48C28.0088 65.48 28.1688 65.46 28.3288 65.42C28.3688 65.38 28.4488 65.4 28.5688 65.48C28.7288 65.72 28.9488 65.74 29.2288 65.54L29.4088 65.24C29.8488 64.92 30.2288 64.62 30.5488 64.34C30.8688 64.02 31.1888 63.66 31.5088 63.26C31.8288 63.06 32.0688 62.84 32.2288 62.6C32.3088 62.56 32.3688 62.54 32.4088 62.54C32.4888 62.5 32.5488 62.46 32.5888 62.42C32.5088 62.42 32.4288 62.4 32.3488 62.36C32.3088 62.28 32.2488 62.22 32.1688 62.18C32.0888 62.18 32.0488 62.26 32.0488 62.42C32.0088 62.46 31.9488 62.56 31.8688 62.72C31.7488 62.8 31.6488 62.9 31.5688 63.02C31.5288 63.1 31.4688 63.16 31.3888 63.2C31.2688 63.32 31.1488 63.42 31.0288 63.5C30.9088 63.54 30.7688 63.6 30.6088 63.68C30.4088 63.76 30.3088 63.7 30.3088 63.5C30.4688 63.3 30.4688 63.14 30.3088 63.02C30.2688 62.94 30.2688 62.8 30.3088 62.6C30.3888 62.6 30.4288 62.6 30.4288 62.6C30.4288 62.56 30.4488 62.54 30.4888 62.54C30.5688 62.58 30.6888 62.6 30.8488 62.6ZM30.5488 66.86C30.5888 66.82 30.6688 66.8 30.7888 66.8C30.9088 66.72 31.0288 66.62 31.1488 66.5C31.3088 66.34 31.4288 66.24 31.5088 66.2C31.7488 66.12 31.9288 66 32.0488 65.84C32.2088 65.64 32.3888 65.48 32.5888 65.36C32.7088 65.2 32.9888 65.04 33.4288 64.88C33.5088 64.8 33.5688 64.72 33.6088 64.64C33.6488 64.56 33.6888 64.5 33.7288 64.46C33.6488 64.38 33.5688 64.32 33.4888 64.28C33.2488 64.28 33.1288 64.28 33.1288 64.28C33.0888 64.32 33.0288 64.38 32.9488 64.46C32.9088 64.54 32.8288 64.64 32.7088 64.76H32.6488C32.5688 64.68 32.4888 64.68 32.4088 64.76C32.3288 64.84 32.2288 64.9 32.1088 64.94C32.1088 64.94 32.0288 64.98 31.8688 65.06C31.6688 65.22 31.4688 65.4 31.2688 65.6C31.0688 65.8 30.8288 65.96 30.5488 66.08C30.5488 66.08 30.5288 66.1 30.4888 66.14C30.4888 66.14 30.4888 66.16 30.4888 66.2C30.4088 66.24 30.3088 66.34 30.1888 66.5C30.1088 66.62 30.0288 66.72 29.9488 66.8C29.8688 66.88 29.8288 66.94 29.8288 66.98H30.0688C30.2688 66.78 30.4288 66.74 30.5488 66.86ZM24.3088 48.86C24.3488 49.02 24.3688 49.16 24.3688 49.28C24.4088 49.4 24.4488 49.5 24.4888 49.58C24.5688 49.82 24.6088 49.94 24.6088 49.94C24.6088 49.9 24.6288 49.88 24.6688 49.88C24.7088 49.84 24.7288 49.8 24.7288 49.76V49.46C24.7288 49.38 24.7088 49.32 24.6688 49.28C24.6688 49.24 24.6688 49.18 24.6688 49.1C24.6288 49.02 24.6088 48.96 24.6088 48.92C24.6488 48.84 24.6488 48.78 24.6088 48.74C24.5288 48.46 24.4288 48.24 24.3088 48.08C24.4688 47.88 24.5488 47.58 24.5488 47.18C24.5888 46.78 24.5688 46.56 24.4888 46.52C24.4488 46.64 24.3888 46.72 24.3088 46.76C24.2288 46.8 24.1688 46.86 24.1288 46.94C24.0888 46.98 24.0288 47.02 23.9488 47.06V47.84C23.9488 47.96 23.9488 48.06 23.9488 48.14C23.9488 48.22 23.9488 48.32 23.9488 48.44V49.22C24.1088 49.02 24.2288 48.9 24.3088 48.86ZM29.5888 68.24C29.8288 68.24 29.9888 68.2 30.0688 68.12C30.1088 68.04 30.1088 67.96 30.0688 67.88C30.0688 67.76 30.0888 67.68 30.1288 67.64V67.46C30.0088 67.46 29.9288 67.48 29.8888 67.52C29.8488 67.52 29.7888 67.54 29.7088 67.58C29.6688 67.58 29.6288 67.58 29.5888 67.58C29.4288 67.58 29.3488 67.68 29.3488 67.88C29.3488 68.12 29.4288 68.24 29.5888 68.24ZM31.8688 64.52C31.9888 64.52 32.0488 64.48 32.0488 64.4C32.0488 64.36 32.0488 64.34 32.0488 64.34C32.0488 64.3 32.0488 64.26 32.0488 64.22V63.98C32.0088 64.06 31.9688 64.12 31.9288 64.16C31.8888 64.16 31.8688 64.18 31.8688 64.22C31.8688 64.34 31.8088 64.4 31.6888 64.4C31.6088 64.4 31.5288 64.4 31.4488 64.4C31.3288 64.36 31.2688 64.44 31.2688 64.64C31.2688 64.76 31.2888 64.86 31.3288 64.94C31.4088 64.98 31.4688 64.98 31.5088 64.94C31.7088 64.94 31.8888 64.88 32.0488 64.76C32.0088 64.68 31.9688 64.64 31.9288 64.64C31.9288 64.6 31.9088 64.56 31.8688 64.52ZM33.7288 65.84C33.9688 65.84 34.0888 65.72 34.0888 65.48C34.0888 65.48 34.0488 65.4 33.9688 65.24C33.8088 65.4 33.7088 65.52 33.6688 65.6L33.7288 65.84ZM30.6088 65.36V65.24C30.4488 65.24 30.3488 65.3 30.3088 65.42C30.2688 65.54 30.2088 65.66 30.1288 65.78C30.2488 65.78 30.3088 65.72 30.3088 65.6C30.4688 65.56 30.5688 65.48 30.6088 65.36ZM24.4288 57.26H24.5488C24.5888 57.06 24.5888 56.88 24.5488 56.72L24.4888 56.48C24.4488 56.6 24.4088 56.68 24.3688 56.72C24.3688 56.72 24.3688 56.74 24.3688 56.78C24.4088 56.86 24.4288 57.02 24.4288 57.26ZM28.1488 68.42H28.5688C28.5688 68.3 28.5288 68.24 28.4488 68.24C28.4088 68.16 28.3488 68.16 28.2688 68.24C28.2288 68.28 28.1888 68.34 28.1488 68.42ZM18.3088 66.26C18.3088 66.18 18.2888 66.12 18.2488 66.08C18.2488 66.04 18.2288 65.98 18.1888 65.9C18.1888 65.9 18.1688 65.9 18.1288 65.9C18.1288 65.86 18.1088 65.84 18.0688 65.84C18.0688 65.84 18.0688 65.86 18.0688 65.9C18.0688 65.9 18.0488 65.9 18.0088 65.9C18.0088 66.14 18.1088 66.26 18.3088 66.26ZM25.6888 45.56C25.6888 45.68 25.6888 45.82 25.6888 45.98C25.7288 46.1 25.7488 46.2 25.7488 46.28C25.8288 45.92 25.8088 45.68 25.6888 45.56ZM18.4888 67.22C18.3288 67.54 18.4488 67.7 18.8488 67.7C18.7688 67.62 18.6888 67.56 18.6088 67.52C18.5688 67.44 18.5288 67.34 18.4888 67.22ZM32.9488 63.74C32.9488 63.7 32.9488 63.68 32.9488 63.68C32.9888 63.64 33.0088 63.6 33.0088 63.56C33.0088 63.48 32.9888 63.42 32.9488 63.38C32.9488 63.34 32.9488 63.3 32.9488 63.26C32.9488 63.3 32.9288 63.34 32.8888 63.38C32.8888 63.42 32.8888 63.48 32.8888 63.56C32.8888 63.64 32.9088 63.7 32.9488 63.74ZM25.9288 44.42C25.9288 44.34 25.9288 44.28 25.9288 44.24C25.9688 44.2 25.9888 44.16 25.9888 44.12C25.8688 44.24 25.8488 44.34 25.9288 44.42ZM40.2088 61.4C40.1688 61.44 40.1288 61.52 40.0888 61.64C40.0488 61.72 39.9888 61.8 39.9088 61.88C39.8688 61.92 39.7288 61.98 39.4888 62.06C39.4088 62.06 39.3688 62.12 39.3688 62.24C39.3688 62.4 39.3488 62.5 39.3088 62.54C39.2688 62.54 39.2088 62.58 39.1288 62.66C39.0888 62.66 39.0288 62.72 38.9488 62.84C38.8288 62.96 38.7488 63.02 38.7088 63.02C38.4688 62.94 38.3488 63.04 38.3488 63.32C38.2688 63.48 38.1688 63.5 38.0488 63.38C38.0488 63.34 38.0488 63.3 38.0488 63.26C38.0888 63.22 38.1088 63.18 38.1088 63.14C37.9488 63.06 37.8088 62.96 37.6888 62.84H38.0488C38.1688 62.84 38.2488 62.82 38.2888 62.78C38.3688 62.74 38.4488 62.72 38.5288 62.72C38.6888 62.64 38.8288 62.56 38.9488 62.48C39.1088 62.4 39.2288 62.28 39.3088 62.12C39.3488 62.08 39.3688 62.04 39.3688 62C39.5288 61.92 39.6688 61.82 39.7888 61.7C39.9488 61.54 40.0688 61.42 40.1488 61.34L40.2088 61.4ZM37.1488 64.52C37.0288 64.56 36.9088 64.66 36.7888 64.82C36.6688 64.94 36.5288 64.98 36.3688 64.94C36.3688 64.9 36.3288 64.92 36.2488 65L35.8888 65.24C35.7288 65.36 35.6288 65.32 35.5888 65.12C35.6688 65.04 35.7688 64.96 35.8888 64.88C36.0088 64.76 36.1488 64.64 36.3088 64.52C36.5488 64.6 36.6888 64.52 36.7288 64.28C36.8088 64.32 36.8888 64.38 36.9688 64.46C36.9688 64.5 37.0288 64.52 37.1488 64.52ZM31.0288 69.26C31.2688 69.18 31.4688 69.1 31.6288 69.02C31.6288 69.06 31.6288 69.1 31.6288 69.14C31.6288 69.14 31.6288 69.16 31.6288 69.2L31.3288 69.38C31.1288 69.42 30.9288 69.5 30.7288 69.62C30.5288 69.74 30.3288 69.84 30.1288 69.92C30.1288 69.92 30.0688 69.92 29.9488 69.92C29.9888 69.88 30.0088 69.84 30.0088 69.8C30.0088 69.76 30.0288 69.74 30.0688 69.74C30.1888 69.66 30.3088 69.6 30.4288 69.56C30.5488 69.52 30.6688 69.48 30.7888 69.44C30.8688 69.4 30.9488 69.34 31.0288 69.26ZM26.5888 65.6C26.5488 65.52 26.5488 65.46 26.5888 65.42C26.6288 65.34 26.6688 65.28 26.7088 65.24C26.7488 65.24 26.8088 65.22 26.8888 65.18C26.9688 65.14 27.0088 65.12 27.0088 65.12C27.0088 65.08 27.0288 65.04 27.0688 65C27.1888 65.12 27.2488 65.2 27.2488 65.24C27.2488 65.36 27.1688 65.46 27.0088 65.54C26.8888 65.54 26.7888 65.56 26.7088 65.6C26.6688 65.6 26.6288 65.6 26.5888 65.6ZM34.1488 67.58C34.1888 67.26 34.2888 67.1 34.4488 67.1C34.6088 67.06 34.7288 66.98 34.8088 66.86C34.7688 66.94 34.7488 67.04 34.7488 67.16C34.7488 67.24 34.7088 67.34 34.6288 67.46C34.5888 67.5 34.5088 67.52 34.3888 67.52C34.3088 67.52 34.2288 67.54 34.1488 67.58ZM29.2288 70.1C29.3888 70.02 29.4488 69.98 29.4088 69.98C29.4488 69.98 29.4888 70 29.5288 70.04C29.5688 70.04 29.6088 70.04 29.6488 70.04L29.4688 70.16C29.4288 70.16 29.3888 70.16 29.3488 70.16C29.3488 70.12 29.3088 70.1 29.2288 70.1ZM31.9888 68.9C31.9888 68.78 32.1088 68.74 32.3488 68.78C32.1088 68.86 31.9888 68.9 31.9888 68.9ZM30.4288 61.88C30.3088 62 30.1688 62.06 30.0088 62.06C29.9688 62.06 29.9088 62.08 29.8288 62.12C29.7888 62.12 29.7288 62.12 29.6488 62.12C29.6088 62.12 29.5688 62.12 29.5288 62.12C29.4888 62.08 29.4688 62.06 29.4688 62.06C29.4688 61.9 29.4488 61.82 29.4088 61.82C29.3688 61.82 29.3288 61.86 29.2888 61.94C29.2888 61.98 29.2688 62 29.2288 62C29.3088 61.92 29.3288 61.82 29.2888 61.7C29.2888 61.54 29.3088 61.44 29.3488 61.4C29.5888 61.36 29.7488 61.38 29.8288 61.46C29.8688 61.5 29.9288 61.56 30.0088 61.64C30.0888 61.68 30.1688 61.72 30.2488 61.76C30.2488 61.76 30.3088 61.8 30.4288 61.88ZM29.7688 63.26C29.6888 63.3 29.6088 63.34 29.5288 63.38C29.4888 63.38 29.5088 63.46 29.5888 63.62C29.5888 63.62 29.5688 63.64 29.5288 63.68C29.4888 63.72 29.4488 63.74 29.4088 63.74L29.2288 63.56C29.2288 63.44 29.2488 63.34 29.2888 63.26C29.3288 63.18 29.3488 63.12 29.3488 63.08C29.5088 62.92 29.6488 62.98 29.7688 63.26ZM29.7688 63.26C29.9288 63.1 30.0288 63.14 30.0688 63.38C30.1088 63.5 30.1488 63.58 30.1888 63.62C30.2288 63.66 30.2688 63.72 30.3088 63.8C30.2688 63.84 30.1888 63.86 30.0688 63.86C30.0288 63.78 29.9888 63.7 29.9488 63.62C29.9088 63.54 29.8488 63.42 29.7688 63.26ZM37.8088 45.2C38.0488 45 38.2288 44.82 38.3488 44.66C38.4688 44.5 38.5888 44.38 38.7088 44.3C39.1488 44.38 39.4088 44.48 39.4888 44.6C39.5688 44.68 39.3888 44.94 38.9488 45.38C38.8288 45.38 38.6888 45.38 38.5288 45.38C38.3688 45.34 38.1288 45.28 37.8088 45.2ZM28.5688 63.86C28.6088 64.06 28.6688 64.24 28.7488 64.4C28.5488 64.4 28.4288 64.38 28.3888 64.34C28.4288 64.26 28.4488 64.18 28.4488 64.1C28.4888 63.98 28.5288 63.9 28.5688 63.86ZM30.7888 61.94C30.8688 62.02 30.9088 62.08 30.9088 62.12C30.8688 62.12 30.8288 62.14 30.7888 62.18C30.7888 62.22 30.7688 62.24 30.7288 62.24H30.6088C30.6088 62.16 30.6288 62.1 30.6688 62.06C30.7088 62.02 30.7488 61.98 30.7888 61.94ZM54.8254 51.26C54.7454 51.06 54.6654 50.86 54.5854 50.66C54.5054 50.42 54.4854 50.2 54.5254 50C54.5254 49.96 54.4454 49.86 54.2854 49.7C54.2454 49.54 54.2454 49.32 54.2854 49.04C54.2854 48.84 54.2854 48.64 54.2854 48.44C54.3254 48.24 54.3654 48.04 54.4054 47.84V47.78C54.3254 47.54 54.2854 47.3 54.2854 47.06C54.2854 46.82 54.2854 46.58 54.2854 46.34C54.3254 46.06 54.3254 45.8 54.2854 45.56C54.2854 45.32 54.2854 45.08 54.2854 44.84C54.2454 44.52 54.2454 44.22 54.2854 43.94C54.3654 43.74 54.4254 43.52 54.4654 43.28C54.5454 43.04 54.5454 42.8 54.4654 42.56C54.4254 42.36 54.4254 42.18 54.4654 42.02C54.5454 41.82 54.6054 41.64 54.6454 41.48C54.7654 40.96 54.7454 40.46 54.5854 39.98C54.5054 39.74 54.4654 39.54 54.4654 39.38C54.5454 39.38 54.6054 39.38 54.6454 39.38C54.6854 39.38 54.7254 39.38 54.7654 39.38V39.2C54.7654 39.12 54.7454 39.06 54.7054 39.02C54.6654 38.94 54.6654 38.88 54.7054 38.84C54.7854 38.52 54.8254 38.18 54.8254 37.82C54.8254 37.42 54.8454 37.06 54.8854 36.74C54.8854 36.66 54.8654 36.6 54.8254 36.56C54.8254 36.48 54.8254 36.42 54.8254 36.38C54.7454 36.02 54.8054 35.72 55.0054 35.48C55.2054 35.32 55.3054 35.04 55.3054 34.64C55.2254 34.2 55.1654 33.78 55.1254 33.38C55.0854 32.98 55.0254 32.58 54.9454 32.18C54.9454 32.1 54.9454 32.02 54.9454 31.94C54.9854 31.82 55.0054 31.7 55.0054 31.58C54.9254 31.5 54.8454 31.46 54.7654 31.46C54.4854 31.38 54.3654 31.2 54.4054 30.92C54.4854 30.76 54.4854 30.62 54.4054 30.5C54.3654 30.38 54.3054 30.28 54.2254 30.2C54.3054 29.68 54.1654 29.34 53.8054 29.18C53.7654 29.18 53.7454 29.14 53.7454 29.06C53.7054 28.9 53.6854 28.6 53.6854 28.16C53.6854 27.68 53.7054 27.38 53.7454 27.26C53.8654 27.14 53.9254 27.02 53.9254 26.9C53.9654 26.78 53.9854 26.64 53.9854 26.48V26.18C54.0654 25.78 54.2454 25.68 54.5254 25.88L55.0054 26.18C55.0854 26.26 55.1854 26.3 55.3054 26.3C55.4254 26.66 55.6054 27.02 55.8454 27.38C55.9254 27.46 55.9654 27.5 55.9654 27.5C56.1254 27.54 56.2654 27.6 56.3854 27.68C56.5454 27.72 56.7054 27.78 56.8654 27.86C57.3054 28.14 57.6054 28.56 57.7654 29.12C57.7654 29.2 57.7854 29.24 57.8254 29.24C57.9054 29.44 57.9854 29.64 58.0654 29.84C58.1854 30 58.2254 30.24 58.1854 30.56C58.4254 30.36 58.6454 30.18 58.8454 30.02C59.0854 29.86 59.3254 29.6 59.5654 29.24C59.5654 29.68 59.5854 29.98 59.6254 30.14C59.7854 30.02 59.9454 29.94 60.1054 29.9C60.0654 29.34 59.9454 28.98 59.7454 28.82C59.5854 28.66 59.2854 28.56 58.8454 28.52C59.0454 28.08 59.1654 27.8 59.2054 27.68C59.2854 27.56 59.4254 27.4 59.6254 27.2C59.7054 27.24 59.7854 27.28 59.8654 27.32C59.9854 27.36 60.0654 27.38 60.1054 27.38C60.4654 27.46 60.6454 27.72 60.6454 28.16C60.7254 28.32 60.7854 28.46 60.8254 28.58C60.9054 28.66 60.9854 28.74 61.0654 28.82C61.2654 29.02 61.4654 29.22 61.6654 29.42C61.8654 29.62 62.0854 29.8 62.3254 29.96C62.3654 30 62.4054 30.04 62.4454 30.08C62.4854 30.08 62.5254 30.12 62.5654 30.2C62.9654 30.64 63.4454 30.86 64.0054 30.86C64.4454 30.9 64.8054 31.08 65.0854 31.4C65.3654 31.72 65.5854 32.1 65.7454 32.54C65.7454 32.78 65.7454 32.9 65.7454 32.9C65.5854 33.02 65.5054 33.16 65.5054 33.32C65.5054 33.48 65.4654 33.62 65.3854 33.74C65.2654 33.78 65.1254 33.82 64.9654 33.86C64.8454 33.86 64.7254 33.9 64.6054 33.98C64.4454 34.02 64.3054 34.14 64.1854 34.34C64.1054 34.54 64.0854 34.74 64.1254 34.94C64.1254 35.06 64.1454 35.18 64.1854 35.3C64.2254 35.42 64.2654 35.54 64.3054 35.66C64.3454 35.7 64.3654 35.78 64.3654 35.9C64.3654 36.22 64.4854 36.46 64.7254 36.62C64.6854 36.66 64.6454 36.74 64.6054 36.86C64.5654 36.94 64.5254 37.02 64.4854 37.1L64.1854 36.98C63.9454 36.82 63.8254 36.88 63.8254 37.16C63.7854 37.32 63.7454 37.5 63.7054 37.7C63.6654 37.86 63.6254 38.04 63.5854 38.24C63.5454 38.56 63.4854 38.9 63.4054 39.26C63.3254 39.58 63.1854 39.9 62.9854 40.22V40.46C62.9454 40.62 62.9054 40.82 62.8654 41.06C62.8654 41.3 62.8654 41.54 62.8654 41.78C62.8254 42.06 62.7854 42.34 62.7454 42.62C62.7454 42.86 62.7454 43.12 62.7454 43.4C62.7454 43.88 62.5854 44.12 62.2654 44.12C62.2254 44.44 62.1854 44.76 62.1454 45.08C62.1054 45.4 62.0854 45.72 62.0854 46.04C62.0854 46.2 62.1654 46.32 62.3254 46.4C62.3654 46.44 62.4454 46.4 62.5654 46.28L63.3454 45.44C63.6254 45.08 63.8854 44.72 64.1254 44.36C64.4054 44 64.6854 43.64 64.9654 43.28C65.4054 42.8 65.8254 42.32 66.2254 41.84C66.6654 41.36 67.0854 40.88 67.4854 40.4L69.3454 38C69.7454 37.56 70.1254 37.14 70.4854 36.74C70.8454 36.3 71.2054 35.88 71.5654 35.48C71.7254 35.32 71.8454 35.18 71.9254 35.06C72.0454 34.94 72.1854 34.84 72.3454 34.76C72.4654 34.68 72.5854 34.54 72.7054 34.34C72.8654 34.14 73.0054 33.96 73.1254 33.8C73.3654 33.56 73.5854 33.3 73.7854 33.02C74.0254 32.74 74.2454 32.48 74.4454 32.24C74.4454 32.2 74.5254 32.14 74.6854 32.06C74.9654 31.94 75.2054 31.78 75.4054 31.58C75.6454 31.38 75.8654 31.2 76.0654 31.04C76.1854 30.92 76.3054 30.84 76.4254 30.8C76.5854 30.76 76.7454 30.72 76.9054 30.68C76.9854 30.68 77.0854 30.7 77.2054 30.74C77.3254 30.74 77.4054 30.74 77.4454 30.74C77.7654 30.82 77.8454 31.04 77.6854 31.4V31.64C77.6854 32.04 77.5854 32.38 77.3854 32.66C77.1854 32.94 76.9854 33.22 76.7854 33.5V33.62C77.0654 34.06 77.4454 34.32 77.9254 34.4C78.0054 34.4 78.0654 34.38 78.1054 34.34C78.1854 34.26 78.2454 34.2 78.2854 34.16C78.3654 34.08 78.4654 34.02 78.5854 33.98C78.7454 33.9 78.8454 33.84 78.8854 33.8V33.92C78.8454 34 78.7654 34.08 78.6454 34.16C78.5654 34.24 78.4854 34.32 78.4054 34.4C78.3654 34.48 78.3054 34.58 78.2254 34.7C78.1854 34.82 78.1254 34.94 78.0454 35.06C78.2054 35.1 78.3454 35.1 78.4654 35.06C78.5854 35.02 78.7254 34.98 78.8854 34.94C78.8454 35.06 78.7854 35.18 78.7054 35.3C78.6254 35.42 78.5454 35.52 78.4654 35.6C78.3054 35.76 78.1654 35.88 78.0454 35.96C77.7254 36.12 77.4454 36.36 77.2054 36.68C76.9654 36.96 76.7054 37.2 76.4254 37.4C76.3054 37.6 76.1254 37.76 75.8854 37.88C75.6054 37.92 75.3854 38.06 75.2254 38.3C75.0654 38.5 74.9254 38.74 74.8054 39.02L74.6254 39.26C74.5054 39.34 74.3654 39.42 74.2054 39.5C74.0854 39.54 73.9654 39.6 73.8454 39.68C73.7254 39.72 73.6654 39.78 73.6654 39.86C73.6654 40.06 73.6054 40.2 73.4854 40.28C73.4054 40.36 73.3254 40.46 73.2454 40.58C73.2054 40.62 73.1654 40.64 73.1254 40.64C73.1254 40.64 73.0854 40.66 73.0054 40.7C72.5654 40.7 72.3454 41 72.3454 41.6C72.1854 41.72 72.0254 41.84 71.8654 41.96C71.7054 42.08 71.5854 42.3 71.5054 42.62C71.5054 42.66 71.4854 42.68 71.4454 42.68C71.2854 42.72 71.1654 42.86 71.0854 43.1C71.0454 43.3 70.9854 43.5 70.9054 43.7C70.8654 43.74 70.8454 43.8 70.8454 43.88C70.8454 43.96 70.8054 44.04 70.7254 44.12C70.3654 44.48 70.0654 44.9 69.8254 45.38C69.6254 45.86 69.3654 46.3 69.0454 46.7L68.8654 47C68.7454 47.08 68.5454 47.2 68.2654 47.36C67.9854 47.48 67.8454 47.66 67.8454 47.9C67.8054 48.06 67.7454 48.2 67.6654 48.32C67.5854 48.44 67.5054 48.6 67.4254 48.8C67.3054 49.2 67.3454 49.56 67.5454 49.88C67.5854 50.08 67.7654 50.34 68.0854 50.66C69.1654 52.1 70.2854 53.38 71.4454 54.5C71.6054 54.66 71.7454 54.8 71.8654 54.92C71.9854 55.04 72.1254 55.18 72.2854 55.34C72.2054 55.62 72.1254 55.8 72.0454 55.88C72.0054 55.92 71.9054 55.86 71.7454 55.7C71.7054 55.62 71.6654 55.56 71.6254 55.52C71.5854 55.48 71.5254 55.44 71.4454 55.4C70.9254 55.12 70.4854 54.76 70.1254 54.32C69.7654 53.84 69.3454 53.4 68.8654 53C68.7854 52.92 68.6854 52.82 68.5654 52.7C68.4454 52.58 68.3254 52.5 68.2054 52.46C68.1654 52.46 68.1454 52.48 68.1454 52.52C68.1454 52.64 68.1854 52.74 68.2654 52.82C68.5454 53.22 68.8254 53.6 69.1054 53.96C69.4254 54.28 69.7454 54.62 70.0654 54.98C70.2654 55.18 70.4454 55.42 70.6054 55.7C70.8054 55.94 70.9854 56.14 71.1454 56.3C71.4654 56.54 71.7454 56.8 71.9854 57.08C72.2654 57.36 72.5454 57.56 72.8254 57.68C73.1854 57.88 73.5654 58 73.9654 58.04C74.4454 58.2 74.9254 58.22 75.4054 58.1C75.8854 57.98 76.3454 58.06 76.7854 58.34C76.9454 58.42 77.0854 58.5 77.2054 58.58C77.3654 58.66 77.5254 58.74 77.6854 58.82C77.7254 58.86 77.9254 58.98 78.2854 59.18C78.6854 59.38 79.0654 59.86 79.4254 60.62C79.9454 60.62 80.3254 60.34 80.5654 59.78L80.8054 59.36C80.9254 59.56 81.0654 59.6 81.2254 59.48C81.3854 59.36 81.5454 59.28 81.7054 59.24C81.7054 58.76 81.8254 58.48 82.0654 58.4C82.1054 58.52 82.1254 58.62 82.1254 58.7C82.1254 58.78 82.1254 58.84 82.1254 58.88C82.2854 59 82.4254 59.12 82.5454 59.24C82.7054 59.36 82.8454 59.48 82.9654 59.6C82.9254 59.76 82.9054 59.92 82.9054 60.08C82.9054 60.2 82.8654 60.32 82.7854 60.44C82.6254 60.72 82.5654 61 82.6054 61.28C82.6454 61.52 82.7054 61.76 82.7854 62C82.7854 62.04 82.7654 62.06 82.7254 62.06C82.7254 62.06 82.7254 62.08 82.7254 62.12C82.6454 62.28 82.5454 62.42 82.4254 62.54C82.3454 62.66 82.2654 62.82 82.1854 63.02C82.1454 63.06 82.1254 63.14 82.1254 63.26C82.1254 63.38 82.1254 63.5 82.1254 63.62C82.1654 63.62 82.1054 63.66 81.9454 63.74C81.8254 63.78 81.7054 63.84 81.5854 63.92C81.4654 64 81.4054 64.14 81.4054 64.34C81.4054 64.38 81.3454 64.46 81.2254 64.58C81.2654 64.78 81.2654 65 81.2254 65.24C81.2254 65.44 81.2654 65.58 81.3454 65.66C81.4654 65.86 81.5054 66.1 81.4654 66.38C81.4254 66.66 81.5054 66.88 81.7054 67.04C81.7054 67.04 81.7054 67.1 81.7054 67.22C81.5454 67.26 81.3854 67.26 81.2254 67.22C81.0654 67.18 80.9254 67.26 80.8054 67.46C80.8854 67.54 80.9254 67.64 80.9254 67.76C80.9654 67.84 81.0054 67.92 81.0454 68C80.8854 68.08 80.7654 68.08 80.6854 68C80.6454 67.88 80.5854 67.76 80.5054 67.64C80.3854 67.76 80.2654 67.86 80.1454 67.94C80.0254 68.02 79.9254 68.12 79.8454 68.24C79.6454 68.04 79.5054 67.92 79.4254 67.88C79.2654 67.96 79.1454 67.84 79.0654 67.52C78.9854 67.2 78.8254 67.02 78.5854 66.98C78.4254 66.98 78.2654 67.06 78.1054 67.22C77.9454 67.5 77.7854 67.62 77.6254 67.58C77.5054 67.54 77.5854 67.5 77.8654 67.46C77.7454 67.42 77.6254 67.38 77.5054 67.34C77.4254 67.26 77.3454 67.2 77.2654 67.16C76.9854 67.08 76.8054 67.08 76.7254 67.16C76.6054 67.24 76.4854 67.2 76.3654 67.04C76.2454 66.84 76.1454 66.72 76.0654 66.68C75.7854 66.56 75.4854 66.36 75.1654 66.08C74.7254 65.68 74.2254 65.36 73.6654 65.12C73.6254 65.12 73.6054 65.1 73.6054 65.06C73.2454 64.82 72.8854 64.58 72.5254 64.34C72.2054 64.06 71.8854 63.78 71.5654 63.5C70.8454 62.94 70.1454 62.42 69.4654 61.94C69.2654 61.74 69.0654 61.54 68.8654 61.34C68.6654 61.14 68.4654 60.96 68.2654 60.8C67.9454 60.48 67.6254 60.16 67.3054 59.84C66.9854 59.52 66.6454 59.22 66.2854 58.94C66.0054 58.62 65.7054 58.3 65.3854 57.98C65.1054 57.66 64.8254 57.34 64.5454 57.02C64.3854 56.82 64.2254 56.62 64.0654 56.42C63.9054 56.18 63.7254 55.96 63.5254 55.76C63.4854 55.68 63.3854 55.88 63.2254 56.36C63.0654 56.8 62.9454 56.98 62.8654 56.9C62.9454 55.9 62.9254 55.3 62.8054 55.1C62.6854 54.86 62.5654 54.68 62.4454 54.56C62.4054 54.52 62.3454 54.5 62.2654 54.5C62.1454 54.5 62.0454 54.62 61.9654 54.86C61.9254 55.1 62.0254 55.22 62.2654 55.22C62.2254 55.38 62.1454 55.78 62.0254 56.42C61.9054 57.06 61.7854 57.4 61.6654 57.44C61.5054 57.48 61.3854 57.62 61.3054 57.86C61.2254 58.1 61.1454 58.32 61.0654 58.52C61.1854 58.52 61.2854 58.52 61.3654 58.52C61.4454 58.52 61.5654 58.52 61.7254 58.52L61.3654 59.18C61.3254 59.38 61.3254 59.54 61.3654 59.66C61.4854 59.94 61.5254 60.24 61.4854 60.56C61.4854 60.84 61.4454 61.12 61.3654 61.4C61.3654 61.68 61.3454 61.94 61.3054 62.18C61.2654 62.38 61.3054 62.58 61.4254 62.78C61.5054 62.86 61.5454 62.92 61.5454 62.96C61.5054 63.32 61.5054 63.66 61.5454 63.98C61.6254 64.3 61.6254 64.62 61.5454 64.94C61.5054 65.1 61.4654 65.26 61.4254 65.42C61.3854 65.58 61.3454 65.76 61.3054 65.96C61.1854 66.52 61.2054 66.94 61.3654 67.22C61.3654 67.46 61.3454 67.66 61.3054 67.82C61.3054 67.94 61.3054 68.1 61.3054 68.3C61.3454 68.66 61.3254 69.02 61.2454 69.38C61.1654 69.7 61.0854 70.02 61.0054 70.34C60.9654 70.42 60.9254 70.52 60.8854 70.64C60.8454 70.72 60.8054 70.84 60.7654 71C60.6854 70.92 60.5254 70.8 60.2854 70.64C60.0854 70.56 59.9454 70.54 59.8654 70.58C59.7854 70.74 59.7454 70.94 59.7454 71.18C59.7454 71.34 59.7654 71.48 59.8054 71.6C59.8454 71.72 59.8454 71.88 59.8054 72.08C59.7654 72.2 59.7254 72.32 59.6854 72.44C59.6454 72.56 59.6054 72.66 59.5654 72.74C59.4454 72.82 59.3454 72.92 59.2654 73.04C59.2254 73.2 59.1654 73.36 59.0854 73.52C58.9654 73.52 58.8654 73.36 58.7854 73.04C58.7854 72.68 58.6054 72.32 58.2454 71.96C58.0054 71.8 57.8654 71.86 57.8254 72.14C57.7854 72.3 57.7654 72.46 57.7654 72.62C57.7654 72.82 57.7654 73 57.7654 73.16V73.46C57.4854 73.3 57.3454 73.04 57.3454 72.68C57.2654 72.48 57.1854 72.28 57.1054 72.08C57.0654 71.88 57.0054 71.7 56.9254 71.54C56.9254 71.34 56.8854 71.16 56.8054 71C56.7654 70.8 56.6454 70.66 56.4454 70.58C56.4854 70.5 56.5254 70.42 56.5654 70.34C56.6454 70.26 56.6654 70.2 56.6254 70.16C56.5454 70.04 56.4054 69.94 56.2054 69.86C56.2854 69.78 56.3254 69.7 56.3254 69.62C56.3654 69.46 56.4054 69.32 56.4454 69.2C56.4854 69.08 56.4854 68.94 56.4454 68.78C56.4054 68.62 56.3854 68.46 56.3854 68.3C56.4254 68.14 56.4454 67.98 56.4454 67.82C56.4454 67.7 56.4454 67.64 56.4454 67.64C56.3654 67.52 56.3254 67.38 56.3254 67.22C56.3654 67.06 56.3654 66.92 56.3254 66.8V66.56C56.1254 66.4 56.0454 66.24 56.0854 66.08C56.1254 65.88 56.1254 65.72 56.0854 65.6C56.2854 65.4 56.4054 65.26 56.4454 65.18C56.5254 65.1 56.5854 64.9 56.6254 64.58C56.5454 64.7 56.4654 64.8 56.3854 64.88C56.3854 64.96 56.3654 65.02 56.3254 65.06C56.3254 64.86 56.3254 64.7 56.3254 64.58C56.3254 64.42 56.3254 64.26 56.3254 64.1L55.6654 63.38C55.6254 63.42 55.5854 63.48 55.5454 63.56C55.5054 63.64 55.4454 63.72 55.3654 63.8C55.3654 63.48 55.3654 63.18 55.3654 62.9C55.4054 62.62 55.4254 62.34 55.4254 62.06C55.5054 62.06 55.5454 62.08 55.5454 62.12C55.5854 62.12 55.6454 62.14 55.7254 62.18C55.8054 61.9 55.8654 61.66 55.9054 61.46C55.9854 61.26 56.0054 61.02 55.9654 60.74C55.8854 60.34 55.9254 60.04 56.0854 59.84C56.2854 59.64 56.2854 59.4 56.0854 59.12C56.0454 59.08 56.0454 59.02 56.0854 58.94C56.1254 58.86 56.1454 58.8 56.1454 58.76C56.2254 58.6 56.2654 58.5 56.2654 58.46C56.3454 58.14 56.4454 57.96 56.5654 57.92C56.7654 57.92 56.8654 57.76 56.8654 57.44C56.8654 57 56.8654 56.58 56.8654 56.18C56.8654 55.78 56.8854 55.38 56.9254 54.98V52.58C56.9254 52.3 56.9254 52.02 56.9254 51.74C56.9254 51.42 56.9454 51.12 56.9854 50.84C56.9854 50.52 57.0054 50.22 57.0454 49.94C57.0854 49.62 57.1054 49.32 57.1054 49.04C57.1054 48.52 57.1454 48.02 57.2254 47.54C57.3054 47.06 57.3454 46.56 57.3454 46.04C57.3054 45.84 57.2854 45.68 57.2854 45.56C57.3254 45.4 57.3454 45.24 57.3454 45.08C57.3454 44.68 57.2654 44.34 57.1054 44.06C57.0654 44.14 57.0254 44.22 56.9854 44.3C56.9854 44.38 56.9654 44.46 56.9254 44.54V45.32C56.9254 45.36 56.7854 45.46 56.5054 45.62C56.4254 45.42 56.3654 45.2 56.3254 44.96C56.3254 44.68 56.3454 44.42 56.3854 44.18C56.5054 43.38 56.4854 42.66 56.3254 42.02C56.3254 41.94 56.2454 41.86 56.0854 41.78C56.0454 41.82 55.9854 41.92 55.9054 42.08C55.9054 42.32 55.9054 42.56 55.9054 42.8C55.9054 43.04 55.8854 43.28 55.8454 43.52C55.8454 43.76 55.8454 44 55.8454 44.24C55.8854 44.48 55.8654 44.72 55.7854 44.96C55.7454 45.08 55.7254 45.2 55.7254 45.32C55.7254 45.44 55.7254 45.58 55.7254 45.74C55.8454 46.22 55.8254 46.68 55.6654 47.12C55.6254 47.28 55.5854 47.48 55.5454 47.72C55.5454 47.92 55.5454 48.12 55.5454 48.32C55.4654 48.76 55.3054 48.98 55.0654 48.98C55.0254 49.26 54.9854 49.58 54.9454 49.94C54.9454 50.26 54.9054 50.58 54.8254 50.9V51.26ZM54.8254 51.26V53.3C54.8254 53.5 54.8054 53.66 54.7654 53.78C54.7654 53.86 54.7054 54.06 54.5854 54.38C54.4254 54.14 54.3454 54 54.3454 53.96C54.3454 53.76 54.3454 53.56 54.3454 53.36C54.3454 53.16 54.3854 52.96 54.4654 52.76C54.5454 52.64 54.5654 52.48 54.5254 52.28C54.4854 52.08 54.4454 51.9 54.4054 51.74C54.5654 51.5 54.7054 51.34 54.8254 51.26ZM53.5054 44.24C53.5454 44.2 53.5854 44.16 53.6254 44.12L53.7454 44.24C53.7454 44.32 53.7054 44.36 53.6254 44.36C53.5454 44.36 53.5054 44.32 53.5054 44.24ZM56.9254 39.02C56.8854 39.18 56.8654 39.3 56.8654 39.38C56.8654 39.42 56.8654 39.46 56.8654 39.5C56.5454 39.58 56.3854 39.64 56.3854 39.68C56.3454 40.04 56.3254 40.28 56.3254 40.4C56.3254 40.52 56.3454 40.74 56.3854 41.06C56.3854 41.1 56.3854 41.16 56.3854 41.24C56.3854 41.28 56.3854 41.34 56.3854 41.42V41.84C56.4654 41.92 56.6254 42 56.8654 42.08C56.9054 41.8 56.9254 41.54 56.9254 41.3C56.9254 41.02 56.9454 40.74 56.9854 40.46L56.8654 40.28C56.9054 40.08 56.9454 39.9 56.9854 39.74C57.0254 39.54 57.0054 39.3 56.9254 39.02ZM70.4854 38.06L70.6054 38.18C70.8854 38.02 71.2654 37.68 71.7454 37.16C72.2654 36.64 72.5654 36.28 72.6454 36.08C72.4854 35.96 72.3454 36.02 72.2254 36.26C72.1854 36.3 72.1454 36.34 72.1054 36.38C72.1054 36.42 72.0654 36.46 71.9854 36.5C71.8254 36.7 71.6454 36.9 71.4454 37.1C71.2454 37.26 71.0454 37.44 70.8454 37.64L70.4854 38.06ZM71.3854 40.4C71.2654 40.32 71.1654 40.32 71.0854 40.4C71.0054 40.44 70.9254 40.5 70.8454 40.58C70.8054 40.62 70.7454 40.7 70.6654 40.82C70.6254 40.94 70.5654 41.04 70.4854 41.12C70.4054 41.24 70.3254 41.36 70.2454 41.48C70.1654 41.6 70.0654 41.72 69.9454 41.84C70.1854 42.04 70.3654 42.04 70.4854 41.84C70.6854 41.64 70.8454 41.42 70.9654 41.18C71.0854 40.9 71.2254 40.64 71.3854 40.4ZM78.5854 60.2C79.0254 60.6 79.3054 61.08 79.4254 61.64C79.5454 62.16 79.6654 62.22 79.7854 61.82C79.5854 61.74 79.3854 61.44 79.1854 60.92C79.0254 60.36 78.8254 60.12 78.5854 60.2ZM71.8054 39.92C72.2454 39.68 72.4854 39.52 72.5254 39.44C72.6054 39.36 72.6254 39.24 72.5854 39.08C71.9454 39.08 71.6854 39.36 71.8054 39.92ZM74.7454 36.98C74.5054 36.9 74.3454 36.94 74.2654 37.1C74.1854 37.22 74.0854 37.34 73.9654 37.46C73.9254 37.62 73.8454 37.76 73.7254 37.88C73.6054 38 73.5054 38.12 73.4254 38.24C73.7454 38.16 73.9854 38 74.1454 37.76C74.3054 37.48 74.5054 37.22 74.7454 36.98ZM68.5054 45.26C67.9854 45.42 67.7054 45.72 67.6654 46.16C67.8654 46.08 68.0454 45.98 68.2054 45.86C68.3654 45.74 68.4654 45.54 68.5054 45.26ZM56.3254 29.48C56.4454 29.68 56.5854 29.66 56.7454 29.42C56.8654 29.3 56.9254 29.16 56.9254 29C56.6454 28.96 56.4854 28.96 56.4454 29C56.4054 29.04 56.3654 29.2 56.3254 29.48ZM57.2254 42.14C57.0254 42.66 57.0054 43.14 57.1654 43.58C57.2054 43.34 57.2454 43.12 57.2854 42.92C57.3254 42.68 57.3054 42.42 57.2254 42.14ZM56.0254 27.92C56.0254 28.24 56.1454 28.44 56.3854 28.52C56.3854 28.52 56.3854 28.5 56.3854 28.46C56.4254 28.42 56.4454 28.38 56.4454 28.34C56.3654 28.02 56.2654 27.86 56.1454 27.86C56.1054 27.86 56.0854 27.88 56.0854 27.92C56.0854 27.92 56.0654 27.92 56.0254 27.92ZM61.6654 54.38C61.9054 54.46 62.0254 54.38 62.0254 54.14V53.72C61.9054 53.64 61.8054 53.7 61.7254 53.9C61.6854 54.02 61.6654 54.18 61.6654 54.38ZM54.9454 47.84C54.9854 47.84 55.0054 47.86 55.0054 47.9C55.0054 47.9 55.0254 47.9 55.0654 47.9C55.0654 47.9 55.1254 47.78 55.2454 47.54C55.0854 47.58 55.0054 47.62 55.0054 47.66C54.9654 47.7 54.9454 47.76 54.9454 47.84ZM77.8654 60.92V60.8C77.8254 60.8 77.7654 60.8 77.6854 60.8C77.6054 60.76 77.5254 60.74 77.4454 60.74V60.86C77.5254 60.86 77.6054 60.88 77.6854 60.92C77.7654 60.92 77.8254 60.92 77.8654 60.92ZM72.8854 35.84C72.9654 35.84 73.0054 35.8 73.0054 35.72C73.0454 35.68 73.0454 35.66 73.0054 35.66C72.9654 35.62 72.9454 35.58 72.9454 35.54C72.8654 35.62 72.8254 35.66 72.8254 35.66C72.8254 35.7 72.8254 35.74 72.8254 35.78C72.8654 35.78 72.8854 35.8 72.8854 35.84ZM55.0654 57.44C55.1054 57.4 55.1454 57.38 55.1854 57.38C55.3054 57.38 55.4254 57.56 55.5454 57.92C55.3854 57.96 55.2854 57.92 55.2454 57.8C55.2054 57.64 55.1454 57.52 55.0654 57.44ZM55.0654 57.44C55.0654 57.52 55.0654 57.62 55.0654 57.74C55.1054 57.86 55.1254 57.98 55.1254 58.1C55.0854 58.1 55.0454 58.12 55.0054 58.16C54.9654 58.16 54.9054 58.16 54.8254 58.16C54.8254 58.44 54.8254 58.72 54.8254 59C54.8254 59.24 54.8054 59.5 54.7654 59.78C54.7254 60.06 54.6854 60.34 54.6454 60.62C54.6454 60.9 54.7054 61.16 54.8254 61.4C54.7854 61.44 54.7454 61.48 54.7054 61.52C54.6654 61.52 54.6054 61.56 54.5254 61.64C54.6454 62.76 54.6454 63.98 54.5254 65.3C54.4054 65.06 54.3454 64.86 54.3454 64.7C54.3454 64.5 54.3454 64.3 54.3454 64.1C54.3054 64.02 54.2854 63.92 54.2854 63.8C54.2854 63.68 54.2854 63.58 54.2854 63.5V63.08C54.3654 62.92 54.3854 62.78 54.3454 62.66C54.3454 62.5 54.3254 62.34 54.2854 62.18C54.2454 62.1 54.2054 62.04 54.1654 62C54.1254 61.92 54.1254 61.84 54.1654 61.76C54.1654 61.4 54.2054 61.14 54.2854 60.98C54.4454 60.82 54.4854 60.64 54.4054 60.44C54.3654 60.12 54.3454 59.82 54.3454 59.54C54.3854 59.26 54.4254 58.98 54.4654 58.7V58.04C54.3454 57.68 54.3654 57.34 54.5254 57.02C54.6054 56.94 54.6454 56.86 54.6454 56.78C54.5654 56.46 54.5454 56.14 54.5854 55.82C54.6254 55.5 54.6054 55.18 54.5254 54.86C54.5254 54.86 54.5254 54.84 54.5254 54.8C54.5654 54.72 54.5854 54.66 54.5854 54.62C54.7054 54.82 54.7654 55.04 54.7654 55.28C54.7654 55.52 54.7854 55.76 54.8254 56V57.2C54.8254 57.36 54.9054 57.44 55.0654 57.44ZM56.3854 56.18C56.2254 55.7 56.2054 55.2 56.3254 54.68C56.3654 54.32 56.3654 54 56.3254 53.72C56.3254 53.64 56.3254 53.56 56.3254 53.48C56.3254 53.36 56.3254 53.28 56.3254 53.24V51.92C56.3254 51.56 56.4054 51.36 56.5654 51.32C56.5654 51.6 56.5854 51.82 56.6254 51.98C56.6254 52.02 56.6254 52.06 56.6254 52.1C56.6654 52.14 56.6854 52.2 56.6854 52.28C56.6454 52.88 56.6254 53.48 56.6254 54.08C56.6654 54.68 56.6454 55.28 56.5654 55.88C56.5654 55.92 56.5254 55.98 56.4454 56.06C56.4054 56.1 56.3854 56.14 56.3854 56.18ZM56.3854 56.18C56.4654 56.26 56.5454 56.32 56.6254 56.36C56.5854 56.48 56.5454 56.6 56.5054 56.72C56.5054 56.84 56.5054 56.98 56.5054 57.14C56.3854 57.14 56.3254 57.02 56.3254 56.78L56.3854 56.18ZM56.5654 51.32V51.26C56.5654 51.02 56.5654 50.8 56.5654 50.6C56.5654 50.4 56.5054 50.22 56.3854 50.06V49.82C56.5854 49.38 56.6854 48.8 56.6854 48.08C56.6854 48.08 56.7054 48.08 56.7454 48.08C56.7854 48.04 56.8254 48 56.8654 47.96C56.8254 48.44 56.8054 48.9 56.8054 49.34C56.8454 49.74 56.8254 50.16 56.7454 50.6C56.7454 50.64 56.7454 50.7 56.7454 50.78C56.7854 50.86 56.7854 50.94 56.7454 51.02C56.7454 51.06 56.6854 51.14 56.5654 51.26V51.32ZM72.5854 55.7C72.7054 55.78 72.8254 55.9 72.9454 56.06C73.1054 56.18 73.2654 56.28 73.4254 56.36C73.3854 56.44 73.3454 56.52 73.3054 56.6C73.2654 56.68 73.2254 56.76 73.1854 56.84C72.9054 56.8 72.7254 56.72 72.6454 56.6C72.5654 56.48 72.5454 56.18 72.5854 55.7ZM62.3254 66.92L62.5054 68.48C62.5454 68.64 62.5254 68.78 62.4454 68.9C62.4054 68.98 62.3454 69.08 62.2654 69.2C62.1454 68.36 62.1654 67.6 62.3254 66.92ZM73.7854 56.78C74.0254 57.02 74.2254 57.18 74.3854 57.26C74.5454 57.42 74.7654 57.54 75.0454 57.62V57.8C74.9254 57.68 74.8054 57.62 74.6854 57.62C74.6454 57.62 74.6054 57.62 74.5654 57.62C74.5654 57.58 74.5254 57.58 74.4454 57.62C74.2454 57.62 74.1054 57.58 74.0254 57.5C73.9454 57.42 73.8654 57.18 73.7854 56.78ZM58.0654 27.14C58.2254 27.06 58.3454 26.96 58.4254 26.84C58.5454 26.72 58.6654 26.7 58.7854 26.78C58.7854 27.1 58.5854 27.4 58.1854 27.68C58.1454 27.6 58.1254 27.52 58.1254 27.44C58.1254 27.36 58.1054 27.26 58.0654 27.14ZM56.5654 46.88C56.6454 46.68 56.6654 46.46 56.6254 46.22C56.6254 45.94 56.7254 45.72 56.9254 45.56C56.9254 45.8 56.9254 46.02 56.9254 46.22C56.9254 46.38 56.9054 46.56 56.8654 46.76C56.8654 46.76 56.7654 46.8 56.5654 46.88ZM54.2254 67.82C54.2654 67.54 54.2854 67.28 54.2854 67.04C54.2854 66.76 54.2854 66.48 54.2854 66.2H54.4054C54.4454 66.48 54.4454 66.76 54.4054 67.04C54.4054 67.28 54.3654 67.54 54.2854 67.82H54.2254ZM55.5454 51.44C55.4254 51.24 55.3854 51.04 55.4254 50.84C55.5054 50.64 55.5454 50.42 55.5454 50.18C55.5454 50.22 55.5854 50.24 55.6654 50.24C55.6254 50.44 55.6054 50.64 55.6054 50.84C55.6054 51.04 55.5854 51.24 55.5454 51.44ZM76.6054 58.52C76.4854 58.76 76.4054 58.94 76.3654 59.06C76.3254 58.98 76.2654 58.94 76.1854 58.94C76.1054 58.9 76.0854 58.8 76.1254 58.64C76.2054 58.44 76.2654 58.38 76.3054 58.46C76.3854 58.5 76.4854 58.52 76.6054 58.52ZM62.1454 62.06C62.1054 61.74 62.0854 61.54 62.0854 61.46C62.1254 61.34 62.2254 61.16 62.3854 60.92C62.3854 61.16 62.3654 61.36 62.3254 61.52C62.3254 61.68 62.3054 61.86 62.2654 62.06H62.1454ZM62.2054 59.96V59.24C62.3254 59.4 62.3854 59.52 62.3854 59.6C62.3854 59.64 62.3254 59.76 62.2054 59.96ZM57.8254 25.94C58.0254 26.06 58.1654 26.12 58.2454 26.12C58.2454 26.24 58.2254 26.3 58.1854 26.3C57.9854 26.38 57.8654 26.26 57.8254 25.94ZM55.1854 65C55.2654 64.84 55.3054 64.72 55.3054 64.64C55.3454 64.64 55.3654 64.64 55.3654 64.64L55.3054 65.06C55.2654 65.02 55.2254 65 55.1854 65ZM75.2854 58.34C75.3254 58.38 75.3854 58.42 75.4654 58.46C75.5454 58.46 75.6054 58.48 75.6454 58.52V58.7C75.5654 58.66 75.4854 58.62 75.4054 58.58C75.3654 58.54 75.3054 58.52 75.2254 58.52C75.2254 58.48 75.2254 58.46 75.2254 58.46C75.2654 58.42 75.2854 58.38 75.2854 58.34ZM62.3254 58.34C62.3254 58.26 62.3054 58.2 62.2654 58.16C62.2654 58.12 62.2454 58.06 62.2054 57.98C62.2454 57.98 62.2654 57.98 62.2654 57.98C62.3054 57.94 62.3454 57.92 62.3854 57.92V58.28C62.3854 58.28 62.3854 58.3 62.3854 58.34C62.3854 58.34 62.3654 58.34 62.3254 58.34ZM54.6454 69.8C54.6454 69.84 54.6054 69.9 54.5254 69.98C54.4854 69.94 54.4654 69.92 54.4654 69.92C54.4654 69.88 54.4654 69.86 54.4654 69.86C54.5054 69.82 54.5254 69.8 54.5254 69.8C54.5654 69.76 54.6054 69.72 54.6454 69.68V69.8ZM55.0054 68.6C54.9654 68.64 54.9454 68.68 54.9454 68.72L54.8854 68.66C54.8854 68.62 54.8854 68.6 54.8854 68.6C54.9254 68.56 54.9454 68.54 54.9454 68.54C54.9454 68.54 54.9454 68.56 54.9454 68.6C54.9454 68.6 54.9654 68.6 55.0054 68.6ZM55.3054 64.1C55.3054 64.1 55.3054 64.12 55.3054 64.16C55.3454 64.16 55.3654 64.16 55.3654 64.16V64.28C55.3254 64.28 55.3054 64.28 55.3054 64.28V64.1ZM82.7854 62C82.7854 62.04 82.7854 62.08 82.7854 62.12C82.8254 62.12 82.8454 62.14 82.8454 62.18C82.8854 62.34 82.9054 62.5 82.9054 62.66C82.9054 62.82 82.9654 62.94 83.0854 63.02C83.1254 63.02 83.1454 63.02 83.1454 63.02V63.44C83.1454 63.24 83.1254 63.1 83.0854 63.02C83.0454 62.38 83.0054 62.04 82.9654 62C82.9254 61.92 82.8654 61.92 82.7854 62Z" fill="#0325FF"/>
<defs>
<linearGradient id="paint0_linear_14_29" x1="2" y1="2" x2="130" y2="130" gradientUnits="userSpaceOnUse">
<stop stop-color="#FFDE03"/>
<stop offset="1" stop-color="#0325FF"/>
</linearGradient>
</defs>
</svg>
