<svg width="26" height="26" viewBox="0 0 26 26" fill="none" xmlns="http://www.w3.org/2000/svg">
<path d="M22.1542 22.1541H18.3018V16.12C18.3018 14.6813 18.2758 12.8288 16.2977 12.8288C14.2913 12.8288 13.9837 14.3975 13.9837 16.0138V22.1541H10.1313V9.74566H13.8298V11.4422H13.8818C14.6358 10.1552 16.0398 9.38383 17.5305 9.438C21.4348 9.438 22.1563 12.0055 22.1563 15.3486L22.1542 22.152V22.1541ZM5.785 8.04917C5.19323 8.04633 4.62647 7.81013 4.20782 7.39188C3.78916 6.97364 3.55242 6.40711 3.549 5.81534C3.549 4.58902 4.55867 3.57935 5.785 3.57935C7.01133 3.57935 8.01883 4.58902 8.021 5.81534C8.021 7.04167 7.01133 8.04917 5.785 8.04917ZM7.71117 22.1541H3.8545V9.74566H7.71117V22.1541ZM24.0717 3.22035e-05H1.9175C1.41516 -0.00288548 0.931964 0.192561 0.572917 0.543899C0.213869 0.895236 0.00798344 1.37407 0 1.87636V24.1236C0.00798344 24.6259 0.213869 25.1047 0.572917 25.4561C0.931964 25.8074 1.41516 26.0029 1.9175 25.9999H24.0738C24.5773 26.004 25.0621 25.8092 25.4228 25.4579C25.7834 25.1065 25.9909 24.627 26 24.1236V1.87419C25.9909 1.37115 25.7833 0.892107 25.4225 0.541456C25.0617 0.190804 24.5769 -0.00302954 24.0738 0.00219871L24.0717 3.22035e-05Z" fill="#0A66C2"/>
</svg>
