<svg xmlns="http://www.w3.org/2000/svg" x="0" y="0" version="1.1" viewBox="0 0 48 48" xml:space="preserve">
  <path fill="#3dd9eb" d="M26,11h-4v8h4V11z"></path>
  <path fill="#3dd9eb" d="M36,11h-4v8h4V11z"></path>
  <path fill="#3dd9eb" d="M16,11h-4v8h4V11z"></path>
  <path fill="#f5bc00" d="M25.6,7.8l-1.6-2l-1.6,2C22.2,8.2,22,8.6,22,9c0,1.1,0.9,2,2,2s2-0.9,2-2C26,8.6,25.8,8.2,25.6,7.8z"></path>
  <path fill="#f5bc00" d="M15.6,7.8l-1.6-2l-1.6,2C12.2,8.2,12,8.6,12,9c0,1.1,0.9,2,2,2s2-0.9,2-2C16,8.6,15.8,8.2,15.6,7.8z"></path>
  <path fill="#f5bc00" d="M35.6,7.8l-1.6-2l-1.6,2C32.2,8.2,32,8.6,32,9c0,1.1,0.9,2,2,2s2-0.9,2-2C36,8.6,35.8,8.2,35.6,7.8z"></path>
  <path fill="#f5bc00" d="M40,40H8V19h32V40z"></path>
  <path fill="#f55376" d="M39,16c-1,0-2,0.5-2.5,1.3C36,16.5,35,16,34,16s-2,0.5-2.5,1.3C31,16.5,30,16,29,16s-2,0.5-2.5,1.3 C26,16.5,25,16,24,16s-2,0.5-2.5,1.3C21,16.5,20,16,19,16s-2,0.5-2.5,1.3C16,16.5,15,16,14,16s-2,0.5-2.5,1.3C11,16.5,10,16,9,16 c-1.7,0-3,1.3-3,3s1.3,3,3,3c1,0,2-0.5,2.5-1.3C12,21.5,13,22,14,22s2-0.5,2.5-1.3C17,21.5,18,22,19,22s2-0.5,2.5-1.3 C22,21.5,23,22,24,22s2-0.5,2.5-1.3C27,21.5,28,22,29,22s2-0.5,2.5-1.3C32,21.5,33,22,34,22s2-0.5,2.5-1.3C37,21.5,38,22,39,22 c1.7,0,3-1.3,3-3S40.7,16,39,16z"></path>
  <path fill="#f55376" d="M40,33H8v-7h32V33z"></path>
  <polygon fill="#6c19ff" points="8,42 40,42 43,38 5,38"></polygon>
  <path fill="#2100c4" d="M40,40H8v-2h32V40z"></path>
  <path fill="#eb0000" d="M8,21.8C8.3,21.9,8.6,22,9,22c1,0,2-0.5,2.5-1.3C12,21.5,13,22,14,22s2-0.5,2.5-1.3C17,21.5,18,22,19,22 s2-0.5,2.5-1.3C22,21.5,23,22,24,22s2-0.5,2.5-1.3C27,21.5,28,22,29,22s2-0.5,2.5-1.3C32,21.5,33,22,34,22s2-0.5,2.5-1.3 C37,21.5,38,22,39,22c0.4,0,0.7-0.1,1-0.2V19H8V21.8z"></path>
</svg>