<svg xmlns="http://www.w3.org/2000/svg" viewBox="0 0 64 64">
  <g data-name="arraw heart">
    <polygon fill="#d80027" points="55 55 59 55 62 58 59 59 59 62 55 59 55 55">
    </polygon>
    <path fill="#d80027" d="M12.68,12.68a10.72,10.72,0,0,1,6.43-2.65c.29-.02.59-.03.89-.03a12.994,12.994,0,0,1,12,8,12.994,12.994,0,0,1,12-8c.3,0,.6.01.89.03,8.95.61,13.43,11.23,8.01,18.39L41.65,41.65,32,53,11.1,28.42a11.675,11.675,0,0,1,1.57-15.74Z"></path>
    <path d="M51.452,17.782a7.928,7.928,0,0,0-6.765-4.759Q44.347,13,44,13a1,1,0,0,0,0,2c.186,0,.371.006.553.019a5.969,5.969,0,0,1,5.079,3.592,6.574,6.574,0,0,1-.668,6.714,1,1,0,0,0,1.61,1.188A8.549,8.549,0,0,0,51.452,17.782Z"></path><path d="M62.707,57.293l-3-3A1,1,0,0,0,59,54H55.414L43.008,41.594S53.683,29.034,53.694,29.02a12.647,12.647,0,0,0,1.4-12.9A11.9,11.9,0,0,0,44.959,9.033Q44.485,9,44,9a13.96,13.96,0,0,0-12,6.786A13.96,13.96,0,0,0,20,9q-.485,0-.959.033a11.816,11.816,0,0,0-6.284,2.31L5.414,4H8A1,1,0,0,0,8,2H3A1,1,0,0,0,2,3V8A1,1,0,0,0,4,8V5.414l7.261,7.261a12.475,12.475,0,0,0-2.353,3.449,12.663,12.663,0,0,0,1.433,12.939l20.9,24.584a1,1,0,0,0,1.524,0l8.946-10.525L54,55.414V59a1,1,0,0,0,.4.8l4,3A1,1,0,0,0,60,62V59.721l2.316-.772a1,1,0,0,0,.391-1.656ZM32,51.456,11.9,27.812a10.647,10.647,0,0,1-1.172-10.859,10.417,10.417,0,0,1,1.947-2.864l4.618,4.618a.973.973,0,0,0,.419.237,4.514,4.514,0,0,1-1.959,1.087,1,1,0,1,0,.494,1.938,6.361,6.361,0,0,0,4.743-7.111,1,1,0,0,0-1.98.284,4.713,4.713,0,0,1-.251,2.229c-.021-.025-.029-.055-.052-.078l-4.525-4.525a9.873,9.873,0,0,1,4.994-1.74Q19.584,11,20,11a11.972,11.972,0,0,1,11.077,7.384,1,1,0,0,0,1.846,0A11.972,11.972,0,0,1,44,11q.416,0,.824.028a9.93,9.93,0,0,1,8.448,5.925A10.647,10.647,0,0,1,52.116,27.79Zm26.684,6.595A1,1,0,0,0,58,59v1l-2-1.5V57a1,1,0,0,0,1-1h1.586l1.563,1.563Z"></path>
  </g>
</svg>