<svg width="22" height="18" viewBox="0 0 22 18" fill="none" xmlns="http://www.w3.org/2000/svg">
<path d="M0.400024 3.00161V14.9984C0.400024 16.6514 1.62915 18 3.13582 18H11.9732C13.4799 18 14.709 16.6514 14.709 14.9984V13.0553C14.709 12.7266 14.4667 12.4608 14.1671 12.4608C13.8675 12.4608 13.6252 12.7266 13.6252 13.0553V14.9984C13.6252 15.9989 12.8807 16.8158 11.9688 16.8158H3.13582C2.22389 16.8158 1.47936 15.9989 1.47936 14.9984V3.00161C1.47936 2.00107 2.22389 1.18421 3.13582 1.18421H11.9732C12.8851 1.18421 13.6296 2.00107 13.6296 3.00161V4.94468C13.6296 5.27336 13.8719 5.53921 14.1715 5.53921C14.4711 5.53921 14.7134 5.27336 14.7134 4.94468V3.00161C14.7134 1.34855 13.4843 0 11.9776 0H3.13582C1.62915 0 0.400024 1.34372 0.400024 3.00161Z" fill="black"/>
<path d="M17.3787 13.4711C17.4844 13.5871 17.621 13.6451 17.7619 13.6451C17.9029 13.6451 18.0395 13.5871 18.1452 13.4711L21.8414 9.41575C22.0529 9.18374 22.0529 8.81156 21.8414 8.57955L18.1452 4.52423C17.9337 4.29222 17.5945 4.29222 17.3831 4.52423C17.1716 4.75624 17.1716 5.12842 17.3831 5.36043L20.1585 8.40554H10.0303C9.73077 8.40554 9.48846 8.67139 9.48846 9.00006C9.48846 9.32874 9.73077 9.59459 10.0303 9.59459H20.1541L17.3787 12.6397C17.1672 12.8669 17.1672 13.2439 17.3787 13.4711Z" fill="black"/>
</svg>
