<svg xmlns="http://www.w3.org/2000/svg" viewBox="0 0 30 30">
  <path d="M 8 1 C 6.895 1 6 1.895 6 3 L 6 27 C 6 28.105 6.895 29 8 29 L 22 29 C 23.105 29 24 28.105 24 27 L 24 23 L 22 23 L 22 27 L 8 27 L 8 3 L 11 3 L 11.414062 3.4140625 C 11.789062 3.7890625 12.298125 4 12.828125 4 L 17.171875 4 C 17.701875 4 18.210938 3.7890625 18.585938 3.4140625 L 19 3 L 22 3 L 22 6 L 24 6 L 24 3 C 24 1.895 23.105 1 22 1 L 8 1 z M 13.5 2 L 15.5 2 C 15.776 2 16 2.224 16 2.5 C 16 2.776 15.776 3 15.5 3 L 13.5 3 C 13.224 3 13 2.776 13 2.5 C 13 2.224 13.224 2 13.5 2 z M 17.5 2 C 17.776 2 18 2.224 18 2.5 C 18 2.776 17.776 3 17.5 3 C 17.224 3 17 2.776 17 2.5 C 17 2.224 17.224 2 17.5 2 z M 13 8 C 11.895 8 11 8.895 11 10 L 11 19 C 11 20.105 11.895 21 13 21 L 14 21 L 14 24 L 18 21 L 27 21 C 28.105 21 29 20.105 29 19 L 29 10 C 29 8.895 28.105 8 27 8 L 13 8 z M 20 10 C 20.552 10 21 10.448 21 11 C 21 11.073 20.972984 11.136078 20.958984 11.205078 C 21.677984 11.514078 22.231578 12.154891 22.392578 12.962891 L 22.722656 14.613281 C 22.904656 15.516281 23.348 16.348 24 17 L 16 17 C 16.652 16.348 17.096344 15.517281 17.277344 14.613281 L 17.607422 12.960938 C 17.768422 12.153937 18.320062 11.513125 19.039062 11.203125 C 19.026063 11.135125 19 11.073 19 11 C 19 10.448 19.448 10 20 10 z M 19 18 L 21 18 C 21 18.552 20.552 19 20 19 C 19.448 19 19 18.552 19 18 z">
  </path>
</svg>